DinishExpanded-Italic.ufo
<glyph name="dollar" format="2">
  <advance width="528"/>
  <unicode hex="0024"/>
  <outline>
    <contour>
      <point x="438" y="497" type="line"/>
      <point x="439" y="502"/>
      <point x="439" y="509"/>
      <point x="439" y="519" type="curve" smooth="yes"/>
      <point x="439" y="543"/>
      <point x="433" y="562"/>
      <point x="421" y="575" type="curve" smooth="yes"/>
      <point x="409" y="588"/>
      <point x="391" y="596"/>
      <point x="367" y="600" type="curve"/>
      <point x="323" y="394" type="line"/>
      <point x="338" y="392" type="line" smooth="yes"/>
      <point x="432" y="379"/>
      <point x="479" y="333"/>
      <point x="479" y="256" type="curve" smooth="yes"/>
      <point x="479" y="234"/>
      <point x="476" y="214"/>
      <point x="469" y="196" type="curve" smooth="yes"/>
      <point x="453" y="147"/>
      <point x="426" y="108"/>
      <point x="388" y="79" type="curve" smooth="yes"/>
      <point x="350" y="50"/>
      <point x="303" y="34"/>
      <point x="246" y="30" type="curve"/>
      <point x="226" y="-60" type="line"/>
      <point x="157" y="-60" type="line"/>
      <point x="176" y="31" type="line"/>
      <point x="126" y="36"/>
      <point x="87" y="52"/>
      <point x="60" y="78" type="curve" smooth="yes"/>
      <point x="33" y="103"/>
      <point x="19" y="137"/>
      <point x="19" y="179" type="curve" smooth="yes"/>
      <point x="19" y="191"/>
      <point x="20" y="204"/>
      <point x="23" y="219" type="curve"/>
      <point x="108" y="219" type="line"/>
      <point x="107" y="208"/>
      <point x="106" y="201"/>
      <point x="105" y="197" type="curve" smooth="yes"/>
      <point x="105" y="146"/>
      <point x="134" y="116"/>
      <point x="193" y="108" type="curve"/>
      <point x="239" y="323" type="line"/>
      <point x="233" y="324" type="line" smooth="yes"/>
      <point x="186" y="331"/>
      <point x="151" y="346"/>
      <point x="127" y="369" type="curve" smooth="yes"/>
      <point x="102" y="391"/>
      <point x="90" y="422"/>
      <point x="90" y="461" type="curve" smooth="yes"/>
      <point x="90" y="478"/>
      <point x="92" y="495"/>
      <point x="97" y="512" type="curve" smooth="yes"/>
      <point x="110" y="561"/>
      <point x="136" y="600"/>
      <point x="174" y="629" type="curve" smooth="yes"/>
      <point x="212" y="658"/>
      <point x="258" y="674"/>
      <point x="313" y="677" type="curve"/>
      <point x="331" y="759" type="line"/>
      <point x="400" y="759" type="line"/>
      <point x="383" y="675" type="line"/>
      <point x="428" y="669"/>
      <point x="463" y="654"/>
      <point x="488" y="629" type="curve" smooth="yes"/>
      <point x="513" y="604"/>
      <point x="525" y="572"/>
      <point x="525" y="531" type="curve" smooth="yes"/>
      <point x="525" y="516"/>
      <point x="524" y="504"/>
      <point x="523" y="497" type="curve"/>
    </contour>
    <contour>
      <point x="305" y="313" type="line"/>
      <point x="262" y="108" type="line"/>
      <point x="328" y="115"/>
      <point x="370" y="147"/>
      <point x="387" y="205" type="curve" smooth="yes"/>
      <point x="390" y="216"/>
      <point x="391" y="227"/>
      <point x="391" y="239" type="curve" smooth="yes"/>
      <point x="391" y="261"/>
      <point x="384" y="278"/>
      <point x="371" y="289" type="curve" smooth="yes"/>
      <point x="358" y="300"/>
      <point x="337" y="307"/>
      <point x="309" y="312" type="curve" smooth="yes"/>
    </contour>
    <contour>
      <point x="256" y="404" type="curve"/>
      <point x="297" y="601" type="line"/>
      <point x="266" y="597"/>
      <point x="241" y="587"/>
      <point x="222" y="572" type="curve" smooth="yes"/>
      <point x="203" y="556"/>
      <point x="190" y="536"/>
      <point x="183" y="511" type="curve" smooth="yes"/>
      <point x="179" y="500"/>
      <point x="177" y="490"/>
      <point x="177" y="479" type="curve" smooth="yes"/>
      <point x="177" y="458"/>
      <point x="183" y="441"/>
      <point x="196" y="430" type="curve" smooth="yes"/>
      <point x="209" y="419"/>
      <point x="229" y="410"/>
    </contour>
  </outline>
</glyph>
<glyph name="zero.tosf" format="2">
  <advance width="562"/>
  <unicode hex="0030"/>
  <outline>
    <contour>
      <point x="30" y="116"/>
      <point x="51" y="219" type="qcurve" smooth="yes"/>
      <point x="70" y="309" type="line" smooth="yes"/>
      <point x="91" y="409"/>
      <point x="228" y="533"/>
      <point x="337" y="533" type="qcurve" smooth="yes"/>
      <point x="446" y="533"/>
      <point x="531" y="409"/>
      <point x="510" y="309" type="qcurve" smooth="yes"/>
      <point x="491" y="219" type="line" smooth="yes"/>
      <point x="470" y="116"/>
      <point x="332" y="-10"/>
      <point x="224" y="-10" type="qcurve" smooth="yes"/>
      <point x="115" y="-10"/>
    </contour>
    <contour>
      <point x="384" y="148"/>
      <point x="400" y="224" type="qcurve" smooth="yes"/>
      <point x="415" y="299" type="line" smooth="yes"/>
      <point x="431" y="375"/>
      <point x="386" y="450"/>
      <point x="320" y="450" type="qcurve" smooth="yes"/>
      <point x="254" y="450"/>
      <point x="178" y="375"/>
      <point x="162" y="299" type="qcurve" smooth="yes"/>
      <point x="147" y="224" type="line" smooth="yes"/>
      <point x="131" y="148"/>
      <point x="175" y="73"/>
      <point x="241" y="73" type="qcurve" smooth="yes"/>
      <point x="308" y="73"/>
    </contour>
  </outline>
</glyph>
<glyph name="one.tosf" format="2">
  <advance width="562"/>
  <unicode hex="0031"/>
  <outline>
    <contour>
      <point x="337" y="420" type="line"/>
      <point x="119" y="326" type="line"/>
      <point x="139" y="425" type="line"/>
      <point x="358" y="523" type="line"/>
      <point x="451" y="523" type="line"/>
      <point x="342" y="0" type="line"/>
      <point x="250" y="0" type="line"/>
    </contour>
  </outline>
</glyph>
<glyph name="two" format="2">
  <advance width="538"/>
  <unicode hex="0032"/>
  <outline>
    <contour>
      <point x="18" y="75" type="line"/>
      <point x="348" y="383" type="line" smooth="yes"/>
      <point x="373" y="405"/>
      <point x="393" y="426"/>
      <point x="408" y="445" type="curve" smooth="yes"/>
      <point x="423" y="464"/>
      <point x="433" y="484"/>
      <point x="438" y="503" type="curve" smooth="yes"/>
      <point x="443" y="522"/>
      <point x="445" y="537"/>
      <point x="445" y="550" type="curve" smooth="yes"/>
      <point x="445" y="577"/>
      <point x="436" y="599"/>
      <point x="418" y="614" type="curve" smooth="yes"/>
      <point x="399" y="629"/>
      <point x="373" y="636"/>
      <point x="340" y="636" type="curve" smooth="yes"/>
      <point x="303" y="636"/>
      <point x="273" y="627"/>
      <point x="250" y="609" type="curve" smooth="yes"/>
      <point x="226" y="591"/>
      <point x="211" y="565"/>
      <point x="204" y="530" type="curve" smooth="yes"/>
      <point x="201" y="513" type="line"/>
      <point x="110" y="513" type="line"/>
      <point x="114" y="535" type="line" smooth="yes"/>
      <point x="124" y="592"/>
      <point x="149" y="637"/>
      <point x="189" y="669" type="curve" smooth="yes"/>
      <point x="229" y="701"/>
      <point x="281" y="717"/>
      <point x="345" y="717" type="curve" smooth="yes"/>
      <point x="405" y="717"/>
      <point x="453" y="703"/>
      <point x="488" y="675" type="curve" smooth="yes"/>
      <point x="523" y="646"/>
      <point x="541" y="607"/>
      <point x="541" y="558" type="curve" smooth="yes"/>
      <point x="541" y="542"/>
      <point x="537" y="521"/>
      <point x="529" y="494" type="curve" smooth="yes"/>
      <point x="522" y="466"/>
      <point x="508" y="439"/>
      <point x="488" y="413" type="curve" smooth="yes"/>
      <point x="468" y="387"/>
      <point x="440" y="357"/>
      <point x="403" y="324" type="curve" smooth="yes"/>
      <point x="151" y="82" type="line"/>
      <point x="444" y="82" type="line"/>
      <point x="427" y="0" type="line"/>
      <point x="2" y="0" type="line"/>
    </contour>
  </outline>
</glyph>
<glyph name="four.tosf" format="2">
  <advance width="562"/>
  <unicode hex="0034"/>
  <outline>
    <contour>
      <point x="481" y="-35" type="line"/>
      <point x="396" y="-35" type="line"/>
      <point x="368" y="-166" type="line"/>
      <point x="274" y="-166" type="line"/>
      <point x="302" y="-35" type="line"/>
      <point x="-10" y="-35" type="line"/>
      <point x="7" y="48" type="line"/>
      <point x="350" y="541" type="line"/>
      <point x="445" y="541" type="line"/>
      <point x="102" y="48" type="line"/>
      <point x="319" y="48" type="line"/>
      <point x="357" y="231" type="line"/>
      <point x="451" y="231" type="line"/>
      <point x="413" y="48" type="line"/>
      <point x="498" y="48" type="line"/>
    </contour>
  </outline>
</glyph>
<glyph name="eight" format="2">
  <advance width="581"/>
  <unicode hex="0038"/>
  <outline>
    <contour>
      <point x="45" y="80"/>
      <point x="45" y="156" type="qcurve" smooth="yes"/>
      <point x="45" y="182"/>
      <point x="52" y="217" type="qcurve" smooth="yes"/>
      <point x="64" y="274"/>
      <point x="141" y="356"/>
      <point x="199" y="375" type="qcurve"/>
      <point x="130" y="413"/>
      <point x="130" y="490" type="qcurve" smooth="yes"/>
      <point x="130" y="505"/>
      <point x="135" y="536"/>
      <point x="136" y="541" type="qcurve" smooth="yes"/>
      <point x="152" y="621"/>
      <point x="281" y="717"/>
      <point x="373" y="717" type="qcurve" smooth="yes"/>
      <point x="461" y="717"/>
      <point x="564" y="632"/>
      <point x="564" y="563" type="qcurve" smooth="yes"/>
      <point x="564" y="540"/>
      <point x="557" y="509" type="qcurve" smooth="yes"/>
      <point x="548" y="461"/>
      <point x="482" y="387"/>
      <point x="431" y="370" type="qcurve"/>
      <point x="511" y="331"/>
      <point x="511" y="239" type="qcurve" smooth="yes"/>
      <point x="511" y="222"/>
      <point x="503" y="182" type="qcurve" smooth="yes"/>
      <point x="483" y="92"/>
      <point x="344" y="-10"/>
      <point x="247" y="-10" type="qcurve" smooth="yes"/>
      <point x="154" y="-10"/>
    </contour>
    <contour>
      <point x="455" y="464"/>
      <point x="465" y="511" type="qcurve" smooth="yes"/>
      <point x="471" y="544"/>
      <point x="471" y="552" type="qcurve" smooth="yes"/>
      <point x="471" y="591"/>
      <point x="414" y="636"/>
      <point x="362" y="636" type="qcurve" smooth="yes"/>
      <point x="310" y="636"/>
      <point x="238" y="584"/>
      <point x="227" y="538" type="qcurve" smooth="yes"/>
      <point x="222" y="512"/>
      <point x="222" y="496" type="qcurve" smooth="yes"/>
      <point x="222" y="457"/>
      <point x="279" y="411"/>
      <point x="329" y="411" type="qcurve" smooth="yes"/>
      <point x="382" y="411"/>
    </contour>
    <contour>
      <point x="397" y="131"/>
      <point x="411" y="188" type="qcurve" smooth="yes"/>
      <point x="418" y="216"/>
      <point x="418" y="233" type="qcurve" smooth="yes"/>
      <point x="418" y="278"/>
      <point x="357" y="331"/>
      <point x="301" y="331" type="qcurve" smooth="yes"/>
      <point x="241" y="331"/>
      <point x="157" y="269"/>
      <point x="144" y="215" type="qcurve" smooth="yes"/>
      <point x="138" y="186"/>
      <point x="138" y="168" type="qcurve" smooth="yes"/>
      <point x="138" y="123"/>
      <point x="200" y="71"/>
      <point x="257" y="71" type="qcurve" smooth="yes"/>
      <point x="316" y="71"/>
    </contour>
  </outline>
</glyph>
<glyph name="D" format="2">
  <advance width="692"/>
  <unicode hex="0044"/>
  <outline>
    <contour>
      <point x="170" y="707" type="line"/>
      <point x="420" y="707" type="line" smooth="yes"/>
      <point x="499" y="707"/>
      <point x="561" y="689"/>
      <point x="605" y="653" type="curve" smooth="yes"/>
      <point x="649" y="616"/>
      <point x="671" y="563"/>
      <point x="671" y="492" type="curve" smooth="yes"/>
      <point x="671" y="465"/>
      <point x="667" y="433"/>
      <point x="659" y="397" type="curve" smooth="yes"/>
      <point x="638" y="294" type="line" smooth="yes"/>
      <point x="616" y="192"/>
      <point x="577" y="118"/>
      <point x="521" y="71" type="curve" smooth="yes"/>
      <point x="465" y="24"/>
      <point x="391" y="0"/>
      <point x="300" y="0" type="curve" smooth="yes"/>
      <point x="19" y="0" type="line"/>
    </contour>
    <contour>
      <point x="309" y="83" type="line" smooth="yes"/>
      <point x="374" y="83"/>
      <point x="426" y="100"/>
      <point x="464" y="133" type="curve" smooth="yes"/>
      <point x="502" y="166"/>
      <point x="529" y="221"/>
      <point x="545" y="297" type="curve" smooth="yes"/>
      <point x="566" y="397" type="line" smooth="yes"/>
      <point x="573" y="431"/>
      <point x="576" y="459"/>
      <point x="577" y="480" type="curve" smooth="yes"/>
      <point x="577" y="529"/>
      <point x="563" y="565"/>
      <point x="535" y="589" type="curve" smooth="yes"/>
      <point x="507" y="612"/>
      <point x="465" y="624"/>
      <point x="408" y="624" type="curve" smooth="yes"/>
      <point x="246" y="624" type="line"/>
      <point x="130" y="83" type="line"/>
    </contour>
  </outline>
</glyph>
<glyph name="I" format="2">
  <advance width="254"/>
  <unicode hex="0049"/>
  <anchor x="274" y="707" name="top"/>
  <outline>
    <contour>
      <point x="173" y="707" type="line"/>
      <point x="266" y="707" type="line"/>
      <point x="119" y="0" type="line"/>
      <point x="26" y="0" type="line"/>
    </contour>
  </outline>
</glyph>
<glyph name="J" format="2">
  <advance width="355"/>
  <unicode hex="004A"/>
  <outline>
    <contour>
      <point x="-7" y="83" type="line"/>
      <point x="56" y="83" type="line" smooth="yes"/>
      <point x="87" y="83"/>
      <point x="111" y="90"/>
      <point x="127" y="103" type="curve" smooth="yes"/>
      <point x="142" y="116"/>
      <point x="154" y="139"/>
      <point x="161" y="171" type="curve" smooth="yes"/>
      <point x="273" y="707" type="line"/>
      <point x="367" y="707" type="line"/>
      <point x="250" y="158" type="line" smooth="yes"/>
      <point x="239" y="105"/>
      <point x="218" y="65"/>
      <point x="186" y="39" type="curve" smooth="yes"/>
      <point x="154" y="13"/>
      <point x="112" y="0"/>
      <point x="59" y="0" type="curve" smooth="yes"/>
      <point x="-26" y="0" type="line"/>
    </contour>
  </outline>
</glyph>
<glyph name="L" format="2">
  <advance width="592"/>
  <unicode hex="004C"/>
  <outline>
    <contour>
      <point x="170" y="707" type="line"/>
      <point x="263" y="707" type="line"/>
      <point x="130" y="83" type="line"/>
      <point x="524" y="83" type="line"/>
      <point x="507" y="0" type="line"/>
      <point x="20" y="0" type="line"/>
    </contour>
  </outline>
</glyph>
<glyph name="O" format="2">
  <advance width="698"/>
  <unicode hex="004F"/>
  <outline>
    <contour>
      <point x="61" y="213" type="curve" smooth="yes"/>
      <point x="61" y="241"/>
      <point x="64" y="271"/>
      <point x="71" y="302" type="curve" smooth="yes"/>
      <point x="96" y="420" type="line" smooth="yes"/>
      <point x="117" y="523"/>
      <point x="156" y="598"/>
      <point x="211" y="646" type="curve" smooth="yes"/>
      <point x="266" y="694"/>
      <point x="337" y="718"/>
      <point x="425" y="718" type="curve" smooth="yes"/>
      <point x="502" y="718"/>
      <point x="564" y="699"/>
      <point x="609" y="661" type="curve" smooth="yes"/>
      <point x="654" y="622"/>
      <point x="677" y="567"/>
      <point x="677" y="495" type="curve" smooth="yes"/>
      <point x="677" y="468"/>
      <point x="674" y="439"/>
      <point x="668" y="406" type="curve" smooth="yes"/>
      <point x="643" y="288" type="line" smooth="yes"/>
      <point x="621" y="186"/>
      <point x="583" y="111"/>
      <point x="528" y="63" type="curve" smooth="yes"/>
      <point x="473" y="14"/>
      <point x="401" y="-10"/>
      <point x="314" y="-10" type="curve" smooth="yes"/>
      <point x="236" y="-10"/>
      <point x="174" y="9"/>
      <point x="129" y="47" type="curve" smooth="yes"/>
      <point x="84" y="85"/>
      <point x="61" y="140"/>
    </contour>
    <contour>
      <point x="550" y="290" type="curve" smooth="yes"/>
      <point x="574" y="403" type="line" smooth="yes"/>
      <point x="580" y="433"/>
      <point x="583" y="459"/>
      <point x="584" y="482" type="curve" smooth="yes"/>
      <point x="584" y="533"/>
      <point x="570" y="571"/>
      <point x="542" y="597" type="curve" smooth="yes"/>
      <point x="513" y="622"/>
      <point x="473" y="635"/>
      <point x="420" y="635" type="curve" smooth="yes"/>
      <point x="357" y="635"/>
      <point x="306" y="618"/>
      <point x="269" y="583" type="curve" smooth="yes"/>
      <point x="232" y="548"/>
      <point x="204" y="491"/>
      <point x="187" y="414" type="curve" smooth="yes"/>
      <point x="163" y="299" type="line" smooth="yes"/>
      <point x="157" y="272"/>
      <point x="154" y="246"/>
      <point x="154" y="223" type="curve" smooth="yes"/>
      <point x="154" y="173"/>
      <point x="168" y="136"/>
      <point x="197" y="111" type="curve" smooth="yes"/>
      <point x="226" y="86"/>
      <point x="267" y="74"/>
      <point x="321" y="74" type="curve" smooth="yes"/>
      <point x="383" y="74"/>
      <point x="433" y="91"/>
      <point x="470" y="126" type="curve" smooth="yes"/>
      <point x="507" y="160"/>
      <point x="533" y="215"/>
    </contour>
  </outline>
</glyph>
<glyph name="Q" format="2">
  <advance width="698"/>
  <unicode hex="0051"/>
  <outline>
    <contour>
      <point x="677" y="495" type="curve" smooth="yes"/>
      <point x="677" y="468"/>
      <point x="674" y="439"/>
      <point x="668" y="406" type="curve" smooth="yes"/>
      <point x="643" y="288" type="line" smooth="yes"/>
      <point x="616" y="161"/>
      <point x="561" y="74"/>
      <point x="478" y="27" type="curve"/>
      <point x="527" y="-121" type="line"/>
      <point x="445" y="-156" type="line"/>
      <point x="395" y="-2" type="line"/>
      <point x="372" y="-7"/>
      <point x="345" y="-10"/>
      <point x="314" y="-10" type="curve" smooth="yes"/>
      <point x="235" y="-10"/>
      <point x="174" y="9"/>
      <point x="129" y="47" type="curve" smooth="yes"/>
      <point x="84" y="85"/>
      <point x="61" y="140"/>
      <point x="61" y="213" type="curve" smooth="yes"/>
      <point x="61" y="241"/>
      <point x="64" y="271"/>
      <point x="71" y="302" type="curve" smooth="yes"/>
      <point x="96" y="420" type="line" smooth="yes"/>
      <point x="117" y="523"/>
      <point x="156" y="598"/>
      <point x="211" y="646" type="curve" smooth="yes"/>
      <point x="266" y="694"/>
      <point x="337" y="718"/>
      <point x="425" y="718" type="curve" smooth="yes"/>
      <point x="502" y="718"/>
      <point x="564" y="699"/>
      <point x="609" y="661" type="curve" smooth="yes"/>
      <point x="654" y="622"/>
      <point x="677" y="567"/>
    </contour>
    <contour>
      <point x="584" y="482" type="curve" smooth="yes"/>
      <point x="584" y="533"/>
      <point x="570" y="571"/>
      <point x="542" y="597" type="curve" smooth="yes"/>
      <point x="513" y="622"/>
      <point x="473" y="635"/>
      <point x="420" y="635" type="curve" smooth="yes"/>
      <point x="357" y="635"/>
      <point x="306" y="618"/>
      <point x="269" y="583" type="curve" smooth="yes"/>
      <point x="232" y="548"/>
      <point x="204" y="491"/>
      <point x="187" y="414" type="curve" smooth="yes"/>
      <point x="163" y="299" type="line" smooth="yes"/>
      <point x="157" y="272"/>
      <point x="154" y="246"/>
      <point x="154" y="223" type="curve" smooth="yes"/>
      <point x="154" y="173"/>
      <point x="168" y="136"/>
      <point x="197" y="111" type="curve" smooth="yes"/>
      <point x="226" y="86"/>
      <point x="267" y="74"/>
      <point x="321" y="74" type="curve" smooth="yes"/>
      <point x="383" y="74"/>
      <point x="433" y="91"/>
      <point x="470" y="126" type="curve" smooth="yes"/>
      <point x="507" y="160"/>
      <point x="533" y="215"/>
      <point x="550" y="290" type="curve" smooth="yes"/>
      <point x="574" y="403" type="line" smooth="yes"/>
      <point x="581" y="433"/>
      <point x="584" y="459"/>
    </contour>
  </outline>
</glyph>
<glyph name="R" format="2">
  <advance width="677"/>
  <unicode hex="0052"/>
  <outline>
    <contour>
      <point x="465" y="304" type="curve"/>
      <point x="584" y="0" type="line"/>
      <point x="480" y="0" type="line"/>
      <point x="372" y="298" type="line"/>
      <point x="176" y="298" type="line"/>
      <point x="113" y="0" type="line"/>
      <point x="19" y="0" type="line"/>
      <point x="170" y="707" type="line"/>
      <point x="470" y="707" type="line" smooth="yes"/>
      <point x="536" y="707"/>
      <point x="587" y="693"/>
      <point x="622" y="666" type="curve" smooth="yes"/>
      <point x="657" y="638"/>
      <point x="675" y="596"/>
      <point x="675" y="541" type="curve" smooth="yes"/>
      <point x="675" y="480"/>
      <point x="656" y="429"/>
      <point x="619" y="387" type="curve" smooth="yes"/>
      <point x="582" y="344"/>
      <point x="530" y="317"/>
    </contour>
    <contour>
      <point x="581" y="527" type="curve" smooth="yes"/>
      <point x="581" y="560"/>
      <point x="571" y="584"/>
      <point x="550" y="600" type="curve" smooth="yes"/>
      <point x="529" y="616"/>
      <point x="497" y="624"/>
      <point x="455" y="624" type="curve" smooth="yes"/>
      <point x="246" y="624" type="line"/>
      <point x="194" y="379" type="line"/>
      <point x="399" y="379" type="line" smooth="yes"/>
      <point x="455" y="379"/>
      <point x="499" y="392"/>
      <point x="532" y="419" type="curve" smooth="yes"/>
      <point x="565" y="445"/>
      <point x="581" y="481"/>
    </contour>
  </outline>
</glyph>
<glyph name="S" format="2">
  <advance width="624"/>
  <unicode hex="0053"/>
  <outline>
    <contour>
      <point x="16" y="170" type="curve" smooth="yes"/>
      <point x="16" y="177"/>
      <point x="17" y="188"/>
      <point x="18" y="205" type="curve"/>
      <point x="109" y="205" type="line"/>
      <point x="108" y="200"/>
      <point x="108" y="194"/>
      <point x="108" y="185" type="curve" smooth="yes"/>
      <point x="108" y="161"/>
      <point x="114" y="141"/>
      <point x="125" y="125" type="curve" smooth="yes"/>
      <point x="148" y="91"/>
      <point x="196" y="75"/>
      <point x="269" y="75" type="curve" smooth="yes"/>
      <point x="334" y="75"/>
      <point x="385" y="88"/>
      <point x="422" y="113" type="curve" smooth="yes"/>
      <point x="459" y="138"/>
      <point x="477" y="173"/>
      <point x="477" y="218" type="curve" smooth="yes"/>
      <point x="477" y="247"/>
      <point x="467" y="269"/>
      <point x="448" y="284" type="curve" smooth="yes"/>
      <point x="428" y="299"/>
      <point x="397" y="310"/>
      <point x="356" y="315" type="curve" smooth="yes"/>
      <point x="280" y="326" type="line" smooth="yes"/>
      <point x="217" y="333"/>
      <point x="171" y="350"/>
      <point x="141" y="377" type="curve" smooth="yes"/>
      <point x="110" y="404"/>
      <point x="95" y="440"/>
      <point x="95" y="487" type="curve" smooth="yes"/>
      <point x="95" y="559"/>
      <point x="121" y="615"/>
      <point x="174" y="656" type="curve" smooth="yes"/>
      <point x="227" y="696"/>
      <point x="297" y="716"/>
      <point x="384" y="716" type="curve" smooth="yes"/>
      <point x="455" y="716"/>
      <point x="511" y="701"/>
      <point x="554" y="672" type="curve" smooth="yes"/>
      <point x="597" y="643"/>
      <point x="618" y="600"/>
      <point x="618" y="543" type="curve" smooth="yes"/>
      <point x="618" y="531"/>
      <point x="618" y="522"/>
      <point x="617" y="515" type="curve"/>
      <point x="526" y="515" type="line"/>
      <point x="527" y="526"/>
      <point x="528" y="533"/>
      <point x="528" y="538" type="curve" smooth="yes"/>
      <point x="528" y="572"/>
      <point x="515" y="597"/>
      <point x="489" y="613" type="curve" smooth="yes"/>
      <point x="463" y="629"/>
      <point x="426" y="637"/>
      <point x="379" y="637" type="curve" smooth="yes"/>
      <point x="320" y="637"/>
      <point x="273" y="625"/>
      <point x="238" y="601" type="curve" smooth="yes"/>
      <point x="203" y="576"/>
      <point x="186" y="543"/>
      <point x="186" y="501" type="curve" smooth="yes"/>
      <point x="186" y="474"/>
      <point x="196" y="453"/>
      <point x="216" y="438" type="curve" smooth="yes"/>
      <point x="235" y="423"/>
      <point x="266" y="413"/>
      <point x="307" y="408" type="curve" smooth="yes"/>
      <point x="389" y="396" type="line" smooth="yes"/>
      <point x="449" y="389"/>
      <point x="494" y="372"/>
      <point x="524" y="345" type="curve" smooth="yes"/>
      <point x="554" y="318"/>
      <point x="569" y="280"/>
      <point x="569" y="231" type="curve" smooth="yes"/>
      <point x="569" y="155"/>
      <point x="541" y="97"/>
      <point x="486" y="56" type="curve" smooth="yes"/>
      <point x="431" y="15"/>
      <point x="356" y="-6"/>
      <point x="263" y="-6" type="curve" smooth="yes"/>
      <point x="186" y="-6"/>
      <point x="126" y="9"/>
      <point x="82" y="40" type="curve" smooth="yes"/>
      <point x="38" y="70"/>
      <point x="16" y="113"/>
    </contour>
  </outline>
</glyph>
<glyph name="U" format="2">
  <advance width="706"/>
  <unicode hex="0055"/>
  <outline>
    <contour>
      <point x="68" y="197" type="curve" smooth="yes"/>
      <point x="68" y="214"/>
      <point x="70" y="234"/>
      <point x="75" y="259" type="curve" smooth="yes"/>
      <point x="170" y="707" type="line"/>
      <point x="263" y="707" type="line"/>
      <point x="168" y="258" type="line" smooth="yes"/>
      <point x="164" y="239"/>
      <point x="162" y="222"/>
      <point x="162" y="206" type="curve" smooth="yes"/>
      <point x="162" y="164"/>
      <point x="176" y="132"/>
      <point x="203" y="110" type="curve" smooth="yes"/>
      <point x="230" y="87"/>
      <point x="269" y="76"/>
      <point x="321" y="76" type="curve" smooth="yes"/>
      <point x="381" y="76"/>
      <point x="429" y="91"/>
      <point x="464" y="121" type="curve" smooth="yes"/>
      <point x="499" y="150"/>
      <point x="524" y="195"/>
      <point x="537" y="254" type="curve" smooth="yes"/>
      <point x="633" y="707" type="line"/>
      <point x="726" y="707" type="line"/>
      <point x="628" y="246" type="line" smooth="yes"/>
      <point x="611" y="166"/>
      <point x="575" y="104"/>
      <point x="521" y="60" type="curve" smooth="yes"/>
      <point x="466" y="16"/>
      <point x="397" y="-6"/>
      <point x="312" y="-6" type="curve" smooth="yes"/>
      <point x="237" y="-6"/>
      <point x="177" y="12"/>
      <point x="134" y="48" type="curve" smooth="yes"/>
      <point x="90" y="83"/>
      <point x="68" y="133"/>
    </contour>
  </outline>
</glyph>
<glyph name="h" format="2">
  <advance width="584"/>
  <unicode hex="0068"/>
  <outline>
    <contour>
      <point x="165" y="707" type="line"/>
      <point x="251" y="707" type="line"/>
      <point x="198" y="455" type="line"/>
      <point x="242" y="505"/>
      <point x="299" y="530"/>
      <point x="369" y="529" type="curve" smooth="yes"/>
      <point x="421" y="529"/>
      <point x="462" y="516"/>
      <point x="491" y="490" type="curve" smooth="yes"/>
      <point x="520" y="463"/>
      <point x="534" y="426"/>
      <point x="534" y="379" type="curve" smooth="yes"/>
      <point x="534" y="361"/>
      <point x="531" y="338"/>
      <point x="525" y="311" type="curve" smooth="yes"/>
      <point x="459" y="0" type="line"/>
      <point x="372" y="0" type="line"/>
      <point x="435" y="299" type="line" smooth="yes"/>
      <point x="440" y="326"/>
      <point x="442" y="345"/>
      <point x="442" y="357" type="curve" smooth="yes"/>
      <point x="442" y="388"/>
      <point x="433" y="411"/>
      <point x="414" y="428" type="curve" smooth="yes"/>
      <point x="395" y="444"/>
      <point x="369" y="452"/>
      <point x="335" y="452" type="curve" smooth="yes"/>
      <point x="290" y="452"/>
      <point x="253" y="438"/>
      <point x="224" y="411" type="curve" smooth="yes"/>
      <point x="195" y="384"/>
      <point x="175" y="345"/>
      <point x="164" y="294" type="curve" smooth="yes"/>
      <point x="101" y="0" type="line"/>
      <point x="14" y="0" type="line"/>
    </contour>
  </outline>
</glyph>
<glyph name="o" format="2">
  <advance width="577"/>
  <unicode hex="006F"/>
  <outline>
    <contour>
      <point x="45" y="84"/>
      <point x="45" y="175" type="qcurve" smooth="yes"/>
      <point x="45" y="209"/>
      <point x="52" y="245" type="qcurve" smooth="yes"/>
      <point x="65" y="308" type="line" smooth="yes"/>
      <point x="89" y="420"/>
      <point x="222" y="532"/>
      <point x="325" y="532" type="qcurve" smooth="yes"/>
      <point x="419" y="532"/>
      <point x="534" y="440"/>
      <point x="534" y="349" type="qcurve" smooth="yes"/>
      <point x="534" y="318"/>
      <point x="525" y="280" type="qcurve" smooth="yes"/>
      <point x="512" y="216" type="line" smooth="yes"/>
      <point x="489" y="103"/>
      <point x="354" y="-9"/>
      <point x="254" y="-9" type="qcurve" smooth="yes"/>
      <point x="160" y="-9"/>
    </contour>
    <contour>
      <point x="409" y="141"/>
      <point x="426" y="224" type="qcurve" smooth="yes"/>
      <point x="438" y="282" type="line" smooth="yes"/>
      <point x="444" y="309"/>
      <point x="444" y="339" type="qcurve" smooth="yes"/>
      <point x="444" y="399"/>
      <point x="377" y="455"/>
      <point x="317" y="455" type="qcurve" smooth="yes"/>
      <point x="251" y="455"/>
      <point x="168" y="383"/>
      <point x="151" y="300" type="qcurve" smooth="yes"/>
      <point x="138" y="242" type="line" smooth="yes"/>
      <point x="132" y="210"/>
      <point x="132" y="185" type="qcurve" smooth="yes"/>
      <point x="132" y="125"/>
      <point x="202" y="69"/>
      <point x="262" y="69" type="qcurve" smooth="yes"/>
      <point x="327" y="69"/>
    </contour>
  </outline>
</glyph>
<glyph name="s" format="2">
  <advance width="530"/>
  <unicode hex="0073"/>
  <outline>
    <contour>
      <point x="22" y="159" type="curve"/>
      <point x="103" y="159" type="line"/>
      <point x="104" y="98"/>
      <point x="148" y="67"/>
      <point x="237" y="67" type="curve" smooth="yes"/>
      <point x="282" y="67"/>
      <point x="317" y="75"/>
      <point x="343" y="92" type="curve" smooth="yes"/>
      <point x="369" y="108"/>
      <point x="382" y="131"/>
      <point x="382" y="160" type="curve" smooth="yes"/>
      <point x="382" y="181"/>
      <point x="375" y="196"/>
      <point x="361" y="205" type="curve" smooth="yes"/>
      <point x="347" y="214"/>
      <point x="325" y="220"/>
      <point x="294" y="224" type="curve" smooth="yes"/>
      <point x="218" y="234" type="line" smooth="yes"/>
      <point x="169" y="239"/>
      <point x="132" y="252"/>
      <point x="109" y="272" type="curve" smooth="yes"/>
      <point x="85" y="292"/>
      <point x="73" y="320"/>
      <point x="73" y="357" type="curve" smooth="yes"/>
      <point x="73" y="411"/>
      <point x="93" y="453"/>
      <point x="134" y="484" type="curve" smooth="yes"/>
      <point x="175" y="515"/>
      <point x="230" y="530"/>
      <point x="299" y="530" type="curve" smooth="yes"/>
      <point x="366" y="530"/>
      <point x="416" y="517"/>
      <point x="451" y="490" type="curve" smooth="yes"/>
      <point x="486" y="463"/>
      <point x="503" y="424"/>
      <point x="503" y="373" type="curve"/>
      <point x="421" y="373" type="line"/>
      <point x="421" y="431"/>
      <point x="378" y="460"/>
      <point x="293" y="460" type="curve" smooth="yes"/>
      <point x="252" y="460"/>
      <point x="219" y="452"/>
      <point x="195" y="436" type="curve" smooth="yes"/>
      <point x="171" y="419"/>
      <point x="159" y="397"/>
      <point x="159" y="370" type="curve" smooth="yes"/>
      <point x="159" y="352"/>
      <point x="166" y="338"/>
      <point x="179" y="329" type="curve" smooth="yes"/>
      <point x="192" y="319"/>
      <point x="212" y="312"/>
      <point x="241" y="309" type="curve" smooth="yes"/>
      <point x="318" y="299" type="line" smooth="yes"/>
      <point x="370" y="292"/>
      <point x="408" y="279"/>
      <point x="433" y="259" type="curve" smooth="yes"/>
      <point x="457" y="238"/>
      <point x="469" y="209"/>
      <point x="469" y="171" type="curve" smooth="yes"/>
      <point x="469" y="116"/>
      <point x="448" y="72"/>
      <point x="406" y="41" type="curve" smooth="yes"/>
      <point x="363" y="10"/>
      <point x="305" y="-6"/>
      <point x="232" y="-6" type="curve" smooth="yes"/>
      <point x="165" y="-6"/>
      <point x="114" y="8"/>
      <point x="77" y="36" type="curve" smooth="yes"/>
      <point x="40" y="63"/>
      <point x="22" y="104"/>
    </contour>
  </outline>
</glyph>
<glyph name="u" format="2">
  <advance width="584"/>
  <unicode hex="0075"/>
  <outline>
    <contour>
      <point x="54" y="76"/>
      <point x="54" y="154" type="qcurve" smooth="yes"/>
      <point x="54" y="185"/>
      <point x="61" y="220" type="qcurve" smooth="yes"/>
      <point x="126" y="523" type="line"/>
      <point x="213" y="523" type="line"/>
      <point x="150" y="223" type="line" smooth="yes"/>
      <point x="142" y="184"/>
      <point x="141" y="165" type="qcurve" smooth="yes"/>
      <point x="141" y="70"/>
      <point x="256" y="70" type="qcurve" smooth="yes"/>
      <point x="326" y="70"/>
      <point x="401" y="138"/>
      <point x="417" y="212" type="qcurve" smooth="yes"/>
      <point x="483" y="523" type="line"/>
      <point x="570" y="523" type="line"/>
      <point x="503" y="207" type="line" smooth="yes"/>
      <point x="458" y="-8"/>
      <point x="249" y="-8" type="qcurve" smooth="yes"/>
      <point x="156" y="-8"/>
    </contour>
  </outline>
</glyph>
<glyph name="cent" format="2">
  <advance width="567"/>
  <unicode hex="00A2"/>
  <outline>
    <contour>
      <point x="441" y="343" type="line"/>
      <point x="442" y="358" type="line" smooth="yes"/>
      <point x="442" y="413"/>
      <point x="414" y="444"/>
      <point x="357" y="453" type="curve"/>
      <point x="275" y="69" type="line"/>
      <point x="312" y="71"/>
      <point x="341" y="81"/>
      <point x="364" y="100" type="curve" smooth="yes"/>
      <point x="387" y="119"/>
      <point x="402" y="145"/>
      <point x="409" y="179" type="curve"/>
      <point x="494" y="179" type="line"/>
      <point x="485" y="121"/>
      <point x="460" y="75"/>
      <point x="419" y="42" type="curve" smooth="yes"/>
      <point x="377" y="9"/>
      <point x="323" y="-8"/>
      <point x="258" y="-9" type="curve"/>
      <point x="239" y="-102" type="line"/>
      <point x="175" y="-102" type="line"/>
      <point x="196" y="-4" type="line"/>
      <point x="149" y="5"/>
      <point x="113" y="24"/>
      <point x="86" y="55" type="curve" smooth="yes"/>
      <point x="59" y="86"/>
      <point x="45" y="127"/>
      <point x="45" y="179" type="curve" smooth="yes"/>
      <point x="45" y="200"/>
      <point x="47" y="222"/>
      <point x="52" y="247" type="curve" smooth="yes"/>
      <point x="65" y="307" type="line" smooth="yes"/>
      <point x="80" y="379"/>
      <point x="109" y="434"/>
      <point x="151" y="471" type="curve" smooth="yes"/>
      <point x="192" y="508"/>
      <point x="245" y="529"/>
      <point x="310" y="532" type="curve"/>
      <point x="330" y="625" type="line"/>
      <point x="394" y="625" type="line"/>
      <point x="374" y="529" type="line"/>
      <point x="422" y="522"/>
      <point x="460" y="506"/>
      <point x="487" y="479" type="curve" smooth="yes"/>
      <point x="514" y="452"/>
      <point x="528" y="415"/>
      <point x="528" y="369" type="curve" smooth="yes"/>
      <point x="528" y="359"/>
      <point x="528" y="350"/>
      <point x="527" y="343" type="curve"/>
    </contour>
    <contour>
      <point x="213" y="74" type="curve"/>
      <point x="293" y="453" type="line"/>
      <point x="256" y="449"/>
      <point x="226" y="435"/>
      <point x="202" y="411" type="curve" smooth="yes"/>
      <point x="178" y="386"/>
      <point x="161" y="349"/>
      <point x="151" y="300" type="curve" smooth="yes"/>
      <point x="138" y="245" type="line" smooth="yes"/>
      <point x="134" y="224"/>
      <point x="132" y="204"/>
      <point x="132" y="187" type="curve" smooth="yes"/>
      <point x="132" y="125"/>
      <point x="159" y="87"/>
    </contour>
  </outline>
</glyph>
<glyph name="registered" format="2">
  <advance width="546"/>
  <unicode hex="00AE"/>
  <outline>
    <contour>
      <point x="133" y="511" type="curve" smooth="yes"/>
      <point x="133" y="548"/>
      <point x="141" y="581"/>
      <point x="158" y="611" type="curve" smooth="yes"/>
      <point x="175" y="640"/>
      <point x="198" y="664"/>
      <point x="227" y="681" type="curve" smooth="yes"/>
      <point x="256" y="698"/>
      <point x="289" y="707"/>
      <point x="326" y="707" type="curve" smooth="yes"/>
      <point x="363" y="707"/>
      <point x="396" y="698"/>
      <point x="425" y="681" type="curve" smooth="yes"/>
      <point x="454" y="664"/>
      <point x="477" y="640"/>
      <point x="494" y="610" type="curve" smooth="yes"/>
      <point x="511" y="580"/>
      <point x="519" y="547"/>
      <point x="519" y="511" type="curve" smooth="yes"/>
      <point x="519" y="474"/>
      <point x="511" y="440"/>
      <point x="494" y="411" type="curve" smooth="yes"/>
      <point x="477" y="381"/>
      <point x="454" y="357"/>
      <point x="425" y="340" type="curve" smooth="yes"/>
      <point x="396" y="323"/>
      <point x="363" y="314"/>
      <point x="326" y="314" type="curve" smooth="yes"/>
      <point x="289" y="314"/>
      <point x="256" y="323"/>
      <point x="227" y="340" type="curve" smooth="yes"/>
      <point x="198" y="357"/>
      <point x="175" y="381"/>
      <point x="158" y="411" type="curve" smooth="yes"/>
      <point x="141" y="441"/>
      <point x="133" y="474"/>
    </contour>
    <contour>
      <point x="482" y="511" type="curve" smooth="yes"/>
      <point x="482" y="558"/>
      <point x="467" y="596"/>
      <point x="438" y="627" type="curve" smooth="yes"/>
      <point x="409" y="657"/>
      <point x="371" y="672"/>
      <point x="326" y="672" type="curve" smooth="yes"/>
      <point x="281" y="672"/>
      <point x="243" y="657"/>
      <point x="214" y="627" type="curve" smooth="yes"/>
      <point x="185" y="596"/>
      <point x="170" y="558"/>
      <point x="170" y="511" type="curve" smooth="yes"/>
      <point x="170" y="463"/>
      <point x="185" y="424"/>
      <point x="214" y="394" type="curve" smooth="yes"/>
      <point x="243" y="363"/>
      <point x="281" y="348"/>
      <point x="326" y="348" type="curve" smooth="yes"/>
      <point x="371" y="348"/>
      <point x="409" y="363"/>
      <point x="438" y="394" type="curve" smooth="yes"/>
      <point x="467" y="424"/>
      <point x="482" y="463"/>
    </contour>
    <contour>
      <point x="252" y="621" type="line"/>
      <point x="338" y="621" type="line" smooth="yes"/>
      <point x="362" y="621"/>
      <point x="380" y="615"/>
      <point x="393" y="604" type="curve" smooth="yes"/>
      <point x="406" y="593"/>
      <point x="412" y="576"/>
      <point x="412" y="555" type="curve" smooth="yes"/>
      <point x="412" y="526"/>
      <point x="399" y="506"/>
      <point x="373" y="495" type="curve"/>
      <point x="417" y="402" type="line"/>
      <point x="372" y="402" type="line"/>
      <point x="331" y="489" type="line"/>
      <point x="294" y="489" type="line"/>
      <point x="294" y="402" type="line"/>
      <point x="252" y="402" type="line"/>
    </contour>
    <contour>
      <point x="336" y="526" type="line" smooth="yes"/>
      <point x="359" y="526"/>
      <point x="370" y="536"/>
      <point x="370" y="555" type="curve" smooth="yes"/>
      <point x="370" y="575"/>
      <point x="359" y="585"/>
      <point x="336" y="585" type="curve" smooth="yes"/>
      <point x="294" y="585" type="line"/>
      <point x="294" y="526" type="line"/>
    </contour>
  </outline>
</glyph>
<glyph name="degree" format="2">
  <advance width="373"/>
  <unicode hex="00B0"/>
  <outline>
    <contour>
      <point x="108" y="509"/>
      <point x="108" y="571" type="qcurve" smooth="yes"/>
      <point x="108" y="633"/>
      <point x="190" y="717"/>
      <point x="253" y="717" type="qcurve" smooth="yes"/>
      <point x="293" y="717"/>
      <point x="359" y="679"/>
      <point x="398" y="612"/>
      <point x="398" y="571" type="qcurve" smooth="yes"/>
      <point x="398" y="530"/>
      <point x="359" y="464"/>
      <point x="293" y="426"/>
      <point x="253" y="426" type="qcurve" smooth="yes"/>
      <point x="190" y="426"/>
    </contour>
    <contour>
      <point x="337" y="534"/>
      <point x="337" y="571" type="qcurve" smooth="yes"/>
      <point x="337" y="610"/>
      <point x="290" y="659"/>
      <point x="253" y="659" type="qcurve" smooth="yes"/>
      <point x="216" y="659"/>
      <point x="168" y="609"/>
      <point x="168" y="571" type="qcurve" smooth="yes"/>
      <point x="168" y="533"/>
      <point x="216" y="484"/>
      <point x="253" y="484" type="qcurve" smooth="yes"/>
      <point x="290" y="484"/>
    </contour>
  </outline>
</glyph>
<glyph name="twosuperior" format="2">
  <advance width="412"/>
  <unicode hex="00B2"/>
  <outline>
    <contour>
      <point x="119" y="503" type="line"/>
      <point x="314" y="675" type="line" smooth="yes"/>
      <point x="334" y="692"/>
      <point x="349" y="707"/>
      <point x="358" y="721" type="curve" smooth="yes"/>
      <point x="367" y="735"/>
      <point x="372" y="749"/>
      <point x="372" y="764" type="curve" smooth="yes"/>
      <point x="372" y="779"/>
      <point x="367" y="790"/>
      <point x="358" y="798" type="curve" smooth="yes"/>
      <point x="348" y="805"/>
      <point x="334" y="809"/>
      <point x="316" y="809" type="curve" smooth="yes"/>
      <point x="297" y="809"/>
      <point x="281" y="804"/>
      <point x="268" y="795" type="curve" smooth="yes"/>
      <point x="255" y="785"/>
      <point x="248" y="771"/>
      <point x="245" y="753" type="curve" smooth="yes"/>
      <point x="244" y="743" type="line"/>
      <point x="166" y="743" type="line"/>
      <point x="168" y="755" type="line" smooth="yes"/>
      <point x="175" y="793"/>
      <point x="192" y="823"/>
      <point x="221" y="844" type="curve" smooth="yes"/>
      <point x="249" y="865"/>
      <point x="285" y="876"/>
      <point x="328" y="876" type="curve" smooth="yes"/>
      <point x="367" y="876"/>
      <point x="399" y="867"/>
      <point x="422" y="849" type="curve" smooth="yes"/>
      <point x="445" y="830"/>
      <point x="456" y="806"/>
      <point x="456" y="776" type="curve" smooth="yes"/>
      <point x="456" y="747"/>
      <point x="448" y="722"/>
      <point x="433" y="699" type="curve" smooth="yes"/>
      <point x="417" y="676"/>
      <point x="394" y="652"/>
      <point x="364" y="627" type="curve" smooth="yes"/>
      <point x="237" y="510" type="line"/>
      <point x="401" y="510" type="line"/>
      <point x="387" y="440" type="line"/>
      <point x="104" y="440" type="line"/>
    </contour>
  </outline>
</glyph>
<glyph name="threesuperior" format="2">
  <advance width="397"/>
  <unicode hex="00B3"/>
  <outline>
    <contour>
      <point x="113" y="520" type="curve" smooth="yes"/>
      <point x="113" y="529"/>
      <point x="115" y="541"/>
      <point x="119" y="558" type="curve"/>
      <point x="190" y="558" type="line"/>
      <point x="189" y="553"/>
      <point x="188" y="546"/>
      <point x="188" y="539" type="curve" smooth="yes"/>
      <point x="188" y="527"/>
      <point x="193" y="517"/>
      <point x="204" y="510" type="curve" smooth="yes"/>
      <point x="214" y="503"/>
      <point x="228" y="499"/>
      <point x="247" y="499" type="curve" smooth="yes"/>
      <point x="273" y="499"/>
      <point x="293" y="507"/>
      <point x="308" y="523" type="curve" smooth="yes"/>
      <point x="322" y="538"/>
      <point x="329" y="558"/>
      <point x="329" y="581" type="curve" smooth="yes"/>
      <point x="329" y="597"/>
      <point x="324" y="609"/>
      <point x="314" y="617" type="curve" smooth="yes"/>
      <point x="303" y="624"/>
      <point x="287" y="628"/>
      <point x="266" y="628" type="curve" smooth="yes"/>
      <point x="242" y="628" type="line"/>
      <point x="256" y="694" type="line"/>
      <point x="280" y="694" type="line" smooth="yes"/>
      <point x="305" y="694"/>
      <point x="325" y="701"/>
      <point x="340" y="715" type="curve" smooth="yes"/>
      <point x="354" y="728"/>
      <point x="361" y="746"/>
      <point x="361" y="767" type="curve" smooth="yes"/>
      <point x="361" y="796"/>
      <point x="343" y="810"/>
      <point x="306" y="810" type="curve" smooth="yes"/>
      <point x="286" y="810"/>
      <point x="270" y="806"/>
      <point x="259" y="797" type="curve" smooth="yes"/>
      <point x="247" y="788"/>
      <point x="240" y="775"/>
      <point x="237" y="760" type="curve" smooth="yes"/>
      <point x="234" y="752" type="line"/>
      <point x="162" y="752" type="line"/>
      <point x="164" y="763" type="line" smooth="yes"/>
      <point x="171" y="799"/>
      <point x="187" y="827"/>
      <point x="214" y="847" type="curve" smooth="yes"/>
      <point x="240" y="866"/>
      <point x="274" y="876"/>
      <point x="316" y="876" type="curve" smooth="yes"/>
      <point x="355" y="876"/>
      <point x="386" y="868"/>
      <point x="408" y="851" type="curve" smooth="yes"/>
      <point x="430" y="834"/>
      <point x="441" y="810"/>
      <point x="441" y="780" type="curve" smooth="yes"/>
      <point x="441" y="754"/>
      <point x="433" y="730"/>
      <point x="418" y="709" type="curve" smooth="yes"/>
      <point x="403" y="688"/>
      <point x="382" y="674"/>
      <point x="356" y="667" type="curve"/>
      <point x="391" y="654"/>
      <point x="408" y="628"/>
      <point x="409" y="589" type="curve" smooth="yes"/>
      <point x="409" y="544"/>
      <point x="393" y="507"/>
      <point x="362" y="478" type="curve" smooth="yes"/>
      <point x="330" y="449"/>
      <point x="289" y="434"/>
      <point x="238" y="434" type="curve" smooth="yes"/>
      <point x="199" y="434"/>
      <point x="169" y="442"/>
      <point x="147" y="457" type="curve" smooth="yes"/>
      <point x="124" y="472"/>
      <point x="113" y="493"/>
    </contour>
  </outline>
</glyph>
<glyph name="mu" format="2">
  <advance width="581"/>
  <unicode hex="00B5"/>
  <outline>
    <contour>
      <point x="126" y="523" type="line"/>
      <point x="213" y="523" type="line"/>
      <point x="148" y="220" type="line" smooth="yes"/>
      <point x="143" y="197"/>
      <point x="141" y="177"/>
      <point x="141" y="161" type="curve" smooth="yes"/>
      <point x="141" y="132"/>
      <point x="150" y="110"/>
      <point x="169" y="95" type="curve" smooth="yes"/>
      <point x="188" y="79"/>
      <point x="213" y="71"/>
      <point x="246" y="71" type="curve" smooth="yes"/>
      <point x="288" y="71"/>
      <point x="324" y="85"/>
      <point x="355" y="112" type="curve" smooth="yes"/>
      <point x="385" y="139"/>
      <point x="405" y="177"/>
      <point x="416" y="226" type="curve" smooth="yes"/>
      <point x="479" y="523" type="line"/>
      <point x="567" y="523" type="line"/>
      <point x="456" y="0" type="line"/>
      <point x="370" y="0" type="line"/>
      <point x="384" y="68" type="line"/>
      <point x="339" y="18"/>
      <point x="283" y="-7"/>
      <point x="215" y="-7" type="curve" smooth="yes"/>
      <point x="168" y="-7"/>
      <point x="133" y="6"/>
      <point x="110" y="33" type="curve"/>
      <point x="69" y="-157" type="line"/>
      <point x="-18" y="-157" type="line"/>
    </contour>
  </outline>
</glyph>
<glyph name="paragraph" format="2">
  <advance width="654"/>
  <unicode hex="00B6"/>
  <outline>
    <contour>
      <point x="326" y="279" type="line"/>
      <point x="324" y="279" type="line" smooth="yes"/>
      <point x="261" y="279"/>
      <point x="212" y="294"/>
      <point x="175" y="324" type="curve" smooth="yes"/>
      <point x="138" y="353"/>
      <point x="119" y="392"/>
      <point x="119" y="440" type="curve" smooth="yes"/>
      <point x="119" y="460"/>
      <point x="121" y="479"/>
      <point x="125" y="498" type="curve" smooth="yes"/>
      <point x="138" y="563"/>
      <point x="171" y="614"/>
      <point x="222" y="651" type="curve" smooth="yes"/>
      <point x="273" y="688"/>
      <point x="336" y="707"/>
      <point x="412" y="707" type="curve" smooth="yes"/>
      <point x="674" y="707" type="line"/>
      <point x="490" y="-157" type="line"/>
      <point x="409" y="-157" type="line"/>
      <point x="575" y="629" type="line"/>
      <point x="482" y="629" type="line"/>
      <point x="315" y="-157" type="line"/>
      <point x="233" y="-157" type="line"/>
    </contour>
  </outline>
</glyph>
<glyph name="ordmasculine" format="2">
  <advance width="376"/>
  <unicode hex="00BA"/>
  <outline>
    <contour>
      <point x="105" y="546" type="curve" smooth="yes"/>
      <point x="105" y="561"/>
      <point x="107" y="575"/>
      <point x="110" y="589" type="curve" smooth="yes"/>
      <point x="119" y="629" type="line" smooth="yes"/>
      <point x="138" y="720"/>
      <point x="194" y="766"/>
      <point x="285" y="766" type="curve" smooth="yes"/>
      <point x="324" y="766"/>
      <point x="356" y="756"/>
      <point x="380" y="737" type="curve" smooth="yes"/>
      <point x="403" y="718"/>
      <point x="415" y="690"/>
      <point x="415" y="655" type="curve" smooth="yes"/>
      <point x="415" y="642"/>
      <point x="414" y="628"/>
      <point x="411" y="614" type="curve" smooth="yes"/>
      <point x="402" y="573" type="line" smooth="yes"/>
      <point x="393" y="527"/>
      <point x="375" y="493"/>
      <point x="347" y="470" type="curve" smooth="yes"/>
      <point x="318" y="447"/>
      <point x="282" y="436"/>
      <point x="237" y="436" type="curve" smooth="yes"/>
      <point x="197" y="436"/>
      <point x="165" y="446"/>
      <point x="141" y="465" type="curve" smooth="yes"/>
      <point x="117" y="484"/>
      <point x="105" y="511"/>
    </contour>
    <contour>
      <point x="330" y="580" type="curve" smooth="yes"/>
      <point x="337" y="615" type="line" smooth="yes"/>
      <point x="339" y="624"/>
      <point x="340" y="634"/>
      <point x="340" y="643" type="curve" smooth="yes"/>
      <point x="340" y="662"/>
      <point x="334" y="676"/>
      <point x="323" y="685" type="curve" smooth="yes"/>
      <point x="311" y="694"/>
      <point x="295" y="699"/>
      <point x="275" y="699" type="curve" smooth="yes"/>
      <point x="230" y="699"/>
      <point x="202" y="674"/>
      <point x="191" y="624" type="curve" smooth="yes"/>
      <point x="183" y="587" type="line" smooth="yes"/>
      <point x="181" y="578"/>
      <point x="180" y="570"/>
      <point x="180" y="561" type="curve" smooth="yes"/>
      <point x="180" y="541"/>
      <point x="186" y="526"/>
      <point x="198" y="517" type="curve" smooth="yes"/>
      <point x="210" y="508"/>
      <point x="226" y="503"/>
      <point x="246" y="503" type="curve" smooth="yes"/>
      <point x="269" y="503"/>
      <point x="288" y="509"/>
      <point x="302" y="522" type="curve" smooth="yes"/>
      <point x="315" y="535"/>
      <point x="325" y="554"/>
    </contour>
  </outline>
</glyph>
<glyph name="Aring" format="2">
  <advance width="671"/>
  <unicode hex="00C5"/>
  <outline>
    <contour>
      <point x="486" y="160" type="line"/>
      <point x="146" y="160" type="line"/>
      <point x="50" y="0" type="line"/>
      <point x="-51" y="0" type="line"/>
      <point x="391" y="707" type="line"/>
      <point x="394" y="707" type="line"/>
      <point x="379" y="714"/>
      <point x="367" y="726"/>
      <point x="358" y="741" type="curve" smooth="yes"/>
      <point x="349" y="756"/>
      <point x="345" y="773"/>
      <point x="345" y="792" type="curve" smooth="yes"/>
      <point x="345" y="820"/>
      <point x="354" y="843"/>
      <point x="373" y="862" type="curve" smooth="yes"/>
      <point x="391" y="881"/>
      <point x="414" y="890"/>
      <point x="441" y="890" type="curve" smooth="yes"/>
      <point x="469" y="890"/>
      <point x="492" y="881"/>
      <point x="511" y="862" type="curve" smooth="yes"/>
      <point x="530" y="843"/>
      <point x="539" y="820"/>
      <point x="539" y="792" type="curve" smooth="yes"/>
      <point x="539" y="769"/>
      <point x="533" y="750"/>
      <point x="520" y="733" type="curve" smooth="yes"/>
      <point x="507" y="716"/>
      <point x="491" y="705"/>
      <point x="470" y="699" type="curve"/>
      <point x="611" y="0" type="line"/>
      <point x="515" y="0" type="line"/>
    </contour>
    <contour>
      <point x="472" y="239" type="line"/>
      <point x="408" y="592" type="line"/>
      <point x="195" y="239" type="line"/>
    </contour>
    <contour>
      <point x="390" y="792" type="curve" smooth="yes"/>
      <point x="390" y="777"/>
      <point x="395" y="764"/>
      <point x="405" y="754" type="curve" smooth="yes"/>
      <point x="415" y="744"/>
      <point x="427" y="739"/>
      <point x="441" y="739" type="curve" smooth="yes"/>
      <point x="456" y="739"/>
      <point x="469" y="744"/>
      <point x="479" y="754" type="curve" smooth="yes"/>
      <point x="489" y="764"/>
      <point x="494" y="777"/>
      <point x="494" y="792" type="curve" smooth="yes"/>
      <point x="494" y="808"/>
      <point x="489" y="821"/>
      <point x="479" y="831" type="curve" smooth="yes"/>
      <point x="469" y="841"/>
      <point x="456" y="846"/>
      <point x="441" y="846" type="curve" smooth="yes"/>
      <point x="427" y="846"/>
      <point x="415" y="841"/>
      <point x="405" y="830" type="curve" smooth="yes"/>
      <point x="395" y="819"/>
      <point x="390" y="807"/>
    </contour>
  </outline>
</glyph>
<glyph name="Ccedilla" format="2">
  <advance width="690"/>
  <unicode hex="00C7"/>
  <outline>
    <contour>
      <point x="582" y="485" type="line"/>
      <point x="583" y="492"/>
      <point x="583" y="500"/>
      <point x="583" y="510" type="curve" smooth="yes"/>
      <point x="583" y="549"/>
      <point x="569" y="580"/>
      <point x="542" y="602" type="curve" smooth="yes"/>
      <point x="515" y="624"/>
      <point x="475" y="635"/>
      <point x="423" y="635" type="curve" smooth="yes"/>
      <point x="358" y="635"/>
      <point x="307" y="618"/>
      <point x="269" y="583" type="curve" smooth="yes"/>
      <point x="231" y="548"/>
      <point x="204" y="491"/>
      <point x="187" y="414" type="curve" smooth="yes"/>
      <point x="163" y="299" type="line" smooth="yes"/>
      <point x="157" y="272"/>
      <point x="154" y="247"/>
      <point x="154" y="224" type="curve" smooth="yes"/>
      <point x="154" y="174"/>
      <point x="169" y="137"/>
      <point x="199" y="112" type="curve" smooth="yes"/>
      <point x="228" y="87"/>
      <point x="271" y="74"/>
      <point x="326" y="74" type="curve" smooth="yes"/>
      <point x="380" y="74"/>
      <point x="424" y="86"/>
      <point x="459" y="111" type="curve" smooth="yes"/>
      <point x="494" y="136"/>
      <point x="516" y="173"/>
      <point x="527" y="222" type="curve"/>
      <point x="618" y="222" type="line"/>
      <point x="602" y="153"/>
      <point x="571" y="99"/>
      <point x="526" y="60" type="curve" smooth="yes"/>
      <point x="481" y="20"/>
      <point x="423" y="-3"/>
      <point x="352" y="-9" type="curve"/>
      <point x="261" y="-156" type="line"/>
      <point x="170" y="-156" type="line"/>
      <point x="274" y="-8" type="line"/>
      <point x="207" y="-1"/>
      <point x="155" y="21"/>
      <point x="118" y="59" type="curve" smooth="yes"/>
      <point x="80" y="96"/>
      <point x="61" y="148"/>
      <point x="61" y="214" type="curve" smooth="yes"/>
      <point x="61" y="241"/>
      <point x="64" y="271"/>
      <point x="71" y="302" type="curve" smooth="yes"/>
      <point x="96" y="420" type="line" smooth="yes"/>
      <point x="117" y="523"/>
      <point x="156" y="598"/>
      <point x="212" y="646" type="curve" smooth="yes"/>
      <point x="267" y="694"/>
      <point x="340" y="718"/>
      <point x="430" y="718" type="curve" smooth="yes"/>
      <point x="508" y="718"/>
      <point x="569" y="701"/>
      <point x="612" y="666" type="curve" smooth="yes"/>
      <point x="655" y="631"/>
      <point x="677" y="583"/>
      <point x="677" y="523" type="curve" smooth="yes"/>
      <point x="677" y="506"/>
      <point x="676" y="494"/>
      <point x="675" y="485" type="curve"/>
    </contour>
  </outline>
</glyph>
<glyph name="Oslash" format="2">
  <advance width="698"/>
  <unicode hex="00D8"/>
  <outline>
    <contour>
      <point x="640" y="627" type="line"/>
      <point x="665" y="591"/>
      <point x="677" y="547"/>
      <point x="677" y="495" type="curve" smooth="yes"/>
      <point x="677" y="468"/>
      <point x="674" y="439"/>
      <point x="668" y="406" type="curve" smooth="yes"/>
      <point x="643" y="288" type="line" smooth="yes"/>
      <point x="621" y="186"/>
      <point x="583" y="111"/>
      <point x="528" y="63" type="curve" smooth="yes"/>
      <point x="473" y="14"/>
      <point x="401" y="-10"/>
      <point x="314" y="-10" type="curve" smooth="yes"/>
      <point x="239" y="-10"/>
      <point x="179" y="7"/>
      <point x="135" y="42" type="curve"/>
      <point x="82" y="-20" type="line"/>
      <point x="8" y="-20" type="line"/>
      <point x="97" y="83" type="line"/>
      <point x="73" y="117"/>
      <point x="61" y="160"/>
      <point x="61" y="213" type="curve" smooth="yes"/>
      <point x="61" y="241"/>
      <point x="64" y="271"/>
      <point x="71" y="302" type="curve" smooth="yes"/>
      <point x="96" y="420" type="line" smooth="yes"/>
      <point x="117" y="523"/>
      <point x="156" y="598"/>
      <point x="211" y="646" type="curve" smooth="yes"/>
      <point x="266" y="694"/>
      <point x="337" y="718"/>
      <point x="425" y="718" type="curve" smooth="yes"/>
      <point x="499" y="718"/>
      <point x="558" y="701"/>
      <point x="602" y="667" type="curve"/>
      <point x="656" y="729" type="line"/>
      <point x="728" y="729" type="line"/>
    </contour>
    <contour>
      <point x="572" y="549" type="curve"/>
      <point x="196" y="112" type="line"/>
      <point x="224" y="87"/>
      <point x="266" y="74"/>
      <point x="321" y="74" type="curve" smooth="yes"/>
      <point x="383" y="74"/>
      <point x="433" y="91"/>
      <point x="470" y="126" type="curve" smooth="yes"/>
      <point x="507" y="160"/>
      <point x="533" y="215"/>
      <point x="550" y="290" type="curve" smooth="yes"/>
      <point x="574" y="403" type="line" smooth="yes"/>
      <point x="580" y="433"/>
      <point x="583" y="459"/>
      <point x="584" y="482" type="curve" smooth="yes"/>
      <point x="583" y="507"/>
      <point x="579" y="530"/>
    </contour>
    <contour>
      <point x="164" y="160" type="curve"/>
      <point x="542" y="596" type="line"/>
      <point x="513" y="622"/>
      <point x="472" y="635"/>
      <point x="420" y="635" type="curve" smooth="yes"/>
      <point x="357" y="635"/>
      <point x="306" y="618"/>
      <point x="269" y="583" type="curve" smooth="yes"/>
      <point x="232" y="548"/>
      <point x="204" y="491"/>
      <point x="187" y="414" type="curve" smooth="yes"/>
      <point x="163" y="299" type="line" smooth="yes"/>
      <point x="157" y="272"/>
      <point x="154" y="246"/>
      <point x="154" y="223" type="curve" smooth="yes"/>
      <point x="154" y="199"/>
      <point x="157" y="178"/>
    </contour>
  </outline>
</glyph>
<glyph name="Thorn" format="2">
  <advance width="651"/>
  <unicode hex="00DE"/>
  <outline>
    <contour>
      <point x="640" y="416" type="curve" smooth="yes"/>
      <point x="640" y="366"/>
      <point x="628" y="322"/>
      <point x="605" y="283" type="curve" smooth="yes"/>
      <point x="582" y="244"/>
      <point x="549" y="213"/>
      <point x="507" y="192" type="curve" smooth="yes"/>
      <point x="464" y="171"/>
      <point x="415" y="160"/>
      <point x="359" y="160" type="curve" smooth="yes"/>
      <point x="146" y="160" type="line"/>
      <point x="113" y="0" type="line"/>
      <point x="19" y="0" type="line"/>
      <point x="170" y="707" type="line"/>
      <point x="263" y="707" type="line"/>
      <point x="237" y="582" type="line"/>
      <point x="433" y="582" type="line" smooth="yes"/>
      <point x="571" y="582"/>
      <point x="640" y="527"/>
    </contour>
    <contour>
      <point x="546" y="401" type="curve" smooth="yes"/>
      <point x="546" y="434"/>
      <point x="535" y="459"/>
      <point x="514" y="476" type="curve" smooth="yes"/>
      <point x="493" y="492"/>
      <point x="460" y="500"/>
      <point x="417" y="500" type="curve" smooth="yes"/>
      <point x="219" y="500" type="line"/>
      <point x="164" y="243" type="line"/>
      <point x="361" y="243" type="line" smooth="yes"/>
      <point x="420" y="243"/>
      <point x="466" y="257"/>
      <point x="498" y="285" type="curve" smooth="yes"/>
      <point x="530" y="313"/>
      <point x="546" y="352"/>
    </contour>
  </outline>
</glyph>
<glyph name="eth" format="2">
  <advance width="562"/>
  <unicode hex="00F0"/>
  <outline>
    <contour>
      <point x="514" y="330" type="curve" smooth="yes"/>
      <point x="514" y="307"/>
      <point x="511" y="282"/>
      <point x="506" y="255" type="curve" smooth="yes"/>
      <point x="498" y="214" type="line" smooth="yes"/>
      <point x="483" y="143"/>
      <point x="452" y="88"/>
      <point x="406" y="49" type="curve" smooth="yes"/>
      <point x="360" y="10"/>
      <point x="303" y="-10"/>
      <point x="236" y="-10" type="curve" smooth="yes"/>
      <point x="175" y="-10"/>
      <point x="128" y="6"/>
      <point x="93" y="37" type="curve" smooth="yes"/>
      <point x="58" y="68"/>
      <point x="41" y="110"/>
      <point x="41" y="164" type="curve" smooth="yes"/>
      <point x="41" y="187"/>
      <point x="44" y="210"/>
      <point x="49" y="231" type="curve" smooth="yes"/>
      <point x="57" y="272" type="line" smooth="yes"/>
      <point x="72" y="339"/>
      <point x="101" y="391"/>
      <point x="144" y="428" type="curve" smooth="yes"/>
      <point x="187" y="465"/>
      <point x="239" y="483"/>
      <point x="302" y="483" type="curve" smooth="yes"/>
      <point x="334" y="483"/>
      <point x="361" y="478"/>
      <point x="382" y="467" type="curve"/>
      <point x="325" y="562" type="line"/>
      <point x="196" y="529" type="line"/>
      <point x="191" y="592" type="line"/>
      <point x="291" y="617" type="line"/>
      <point x="236" y="709" type="line"/>
      <point x="338" y="709" type="line"/>
      <point x="379" y="640" type="line"/>
      <point x="509" y="673" type="line"/>
      <point x="512" y="610" type="line"/>
      <point x="412" y="585" type="line"/>
      <point x="461" y="503" type="line" smooth="yes"/>
      <point x="480" y="472"/>
      <point x="493" y="443"/>
      <point x="502" y="416" type="curve" smooth="yes"/>
      <point x="510" y="388"/>
      <point x="514" y="359"/>
    </contour>
    <contour>
      <point x="427" y="304" type="curve" smooth="yes"/>
      <point x="427" y="337"/>
      <point x="417" y="362"/>
      <point x="396" y="381" type="curve" smooth="yes"/>
      <point x="375" y="399"/>
      <point x="345" y="408"/>
      <point x="306" y="408" type="curve" smooth="yes"/>
      <point x="261" y="408"/>
      <point x="225" y="396"/>
      <point x="198" y="372" type="curve" smooth="yes"/>
      <point x="170" y="348"/>
      <point x="151" y="313"/>
      <point x="141" y="268" type="curve" smooth="yes"/>
      <point x="133" y="230" type="line" smooth="yes"/>
      <point x="129" y="211"/>
      <point x="127" y="194"/>
      <point x="127" y="177" type="curve" smooth="yes"/>
      <point x="127" y="142"/>
      <point x="138" y="116"/>
      <point x="159" y="97" type="curve" smooth="yes"/>
      <point x="180" y="78"/>
      <point x="209" y="69"/>
      <point x="247" y="69" type="curve" smooth="yes"/>
      <point x="292" y="69"/>
      <point x="328" y="82"/>
      <point x="356" y="107" type="curve" smooth="yes"/>
      <point x="384" y="132"/>
      <point x="403" y="167"/>
      <point x="413" y="213" type="curve" smooth="yes"/>
      <point x="421" y="253" type="line" smooth="yes"/>
      <point x="425" y="278"/>
      <point x="427" y="295"/>
    </contour>
  </outline>
</glyph>
<glyph name="divide" format="2">
  <advance width="527"/>
  <unicode hex="00F7"/>
  <outline>
    <contour>
      <point x="59" y="324" type="line"/>
      <point x="477" y="324" type="line"/>
      <point x="477" y="242" type="line"/>
      <point x="59" y="242" type="line"/>
    </contour>
    <contour>
      <point x="210" y="131" type="curve" smooth="yes"/>
      <point x="210" y="147"/>
      <point x="215" y="160"/>
      <point x="226" y="171" type="curve" smooth="yes"/>
      <point x="237" y="181"/>
      <point x="249" y="186"/>
      <point x="264" y="186" type="curve" smooth="yes"/>
      <point x="280" y="186"/>
      <point x="293" y="181"/>
      <point x="304" y="171" type="curve" smooth="yes"/>
      <point x="314" y="160"/>
      <point x="319" y="147"/>
      <point x="319" y="131" type="curve" smooth="yes"/>
      <point x="319" y="115"/>
      <point x="314" y="102"/>
      <point x="304" y="92" type="curve" smooth="yes"/>
      <point x="293" y="81"/>
      <point x="280" y="76"/>
      <point x="264" y="76" type="curve" smooth="yes"/>
      <point x="249" y="76"/>
      <point x="237" y="82"/>
      <point x="226" y="93" type="curve" smooth="yes"/>
      <point x="215" y="104"/>
      <point x="210" y="116"/>
    </contour>
    <contour>
      <point x="210" y="436" type="curve" smooth="yes"/>
      <point x="210" y="451"/>
      <point x="215" y="464"/>
      <point x="226" y="475" type="curve" smooth="yes"/>
      <point x="237" y="485"/>
      <point x="249" y="490"/>
      <point x="264" y="490" type="curve" smooth="yes"/>
      <point x="280" y="490"/>
      <point x="293" y="485"/>
      <point x="304" y="475" type="curve" smooth="yes"/>
      <point x="314" y="464"/>
      <point x="319" y="451"/>
      <point x="319" y="436" type="curve" smooth="yes"/>
      <point x="319" y="420"/>
      <point x="314" y="407"/>
      <point x="304" y="397" type="curve" smooth="yes"/>
      <point x="293" y="386"/>
      <point x="280" y="381"/>
      <point x="264" y="381" type="curve" smooth="yes"/>
      <point x="249" y="381"/>
      <point x="237" y="386"/>
      <point x="226" y="397" type="curve" smooth="yes"/>
      <point x="215" y="408"/>
      <point x="210" y="421"/>
    </contour>
  </outline>
</glyph>
<glyph name="Aogonek" format="2">
  <advance width="681"/>
  <unicode hex="0104"/>
  <outline>
    <component base="A" xOffset="0" yOffset="0"/>
    <contour>
      <point x="526" y="0" type="line"/>
      <point x="617" y="0" type="line"/>
      <point x="455" y="-58" type="line"/>
      <point x="484" y="-83"/>
      <point x="541" y="-94"/>
      <point x="597" y="-95" type="curve"/>
      <point x="584" y="-157" type="line"/>
      <point x="501" y="-156"/>
      <point x="436" y="-139"/>
      <point x="392" y="-106" type="curve" smooth="yes"/>
      <point x="370" y="-89"/>
      <point x="355" y="-67"/>
      <point x="349" y="-40" type="curve"/>
    </contour>
  </outline>
</glyph>
<glyph name="aogonek" format="2">
  <advance width="562"/>
  <unicode hex="0105"/>
  <outline>
    <component base="a" xOffset="0" yOffset="0"/>
    <contour>
      <point x="355" y="0" type="line"/>
      <point x="439" y="0" type="line"/>
      <point x="277" y="-58" type="line"/>
      <point x="306" y="-83"/>
      <point x="363" y="-94"/>
      <point x="419" y="-95" type="curve"/>
      <point x="406" y="-157" type="line"/>
      <point x="323" y="-156"/>
      <point x="258" y="-139"/>
      <point x="214" y="-106" type="curve" smooth="yes"/>
      <point x="192" y="-89"/>
      <point x="177" y="-67"/>
      <point x="171" y="-40" type="curve"/>
    </contour>
  </outline>
</glyph>
<glyph name="dcroat" format="2">
  <advance width="593"/>
  <unicode hex="0111"/>
  <outline>
    <contour>
      <point x="358.07083990206866" y="640" type="line"/>
      <point x="671.0708399020687" y="640" type="line"/>
      <point x="658.8040501438209" y="581" type="line"/>
      <point x="345.80405014382086" y="581" type="line"/>
    </contour>
    <component base="d"/>
  </outline>
</glyph>
<glyph name="eogonek" format="2">
  <advance width="570"/>
  <unicode hex="0119"/>
  <outline>
    <contour>
      <point x="374" y="27" type="line"/>
      <point x="202" y="-81" type="line"/>
      <point x="229" y="-116"/>
      <point x="286" y="-131"/>
      <point x="342" y="-132" type="curve"/>
      <point x="324" y="-218" type="line"/>
      <point x="240" y="-216"/>
      <point x="177" y="-193"/>
      <point x="135" y="-147" type="curve" smooth="yes"/>
      <point x="114" y="-124"/>
      <point x="102" y="-93"/>
      <point x="97" y="-56" type="curve"/>
    </contour>
    <component base="e"/>
  </outline>
</glyph>
<glyph name="IJ" format="2">
  <advance width="708"/>
  <unicode hex="0132"/>
  <outline>
    <contour>
      <point x="735" y="707" type="line"/>
      <point x="639" y="253" type="line" smooth="yes"/>
      <point x="621" y="171"/>
      <point x="583" y="107"/>
      <point x="524" y="62" type="curve" smooth="yes"/>
      <point x="465" y="17"/>
      <point x="391" y="-6"/>
      <point x="303" y="-6" type="curve" smooth="yes"/>
      <point x="215" y="-6"/>
      <point x="151" y="17"/>
      <point x="111" y="62" type="curve" smooth="yes"/>
      <point x="88" y="88"/>
      <point x="75" y="121"/>
      <point x="71" y="160" type="curve"/>
      <point x="170" y="160" type="line"/>
      <point x="185" y="104"/>
      <point x="235" y="76"/>
      <point x="320" y="76" type="curve" smooth="yes"/>
      <point x="445" y="76"/>
      <point x="521" y="137"/>
      <point x="547" y="259" type="curve" smooth="yes"/>
      <point x="642" y="707" type="line"/>
    </contour>
    <contour>
      <point x="267" y="707" type="line"/>
      <point x="179" y="292" type="line"/>
      <point x="86" y="292" type="line"/>
      <point x="174" y="707" type="line"/>
    </contour>
  </outline>
</glyph>
<glyph name="ij" format="2">
  <advance width="582"/>
  <unicode hex="0133"/>
  <outline>
    <contour>
      <point x="157" y="706" type="line"/>
      <point x="244" y="706" type="line"/>
      <point x="224" y="611" type="line"/>
      <point x="137" y="611" type="line"/>
    </contour>
    <contour>
      <point x="157" y="706" type="line"/>
      <point x="244" y="706" type="line"/>
      <point x="224" y="611" type="line"/>
      <point x="137" y="611" type="line"/>
    </contour>
    <contour>
      <point x="518" y="706" type="line"/>
      <point x="605" y="706" type="line"/>
      <point x="585" y="611" type="line"/>
      <point x="498" y="611" type="line"/>
    </contour>
    <contour>
      <point x="198" y="-90" type="curve" smooth="yes"/>
      <point x="129" y="-90"/>
      <point x="79" y="-75"/>
      <point x="78" y="-16" type="curve"/>
      <point x="-7" y="-16" type="line"/>
      <point x="-22" y="-126"/>
      <point x="66" y="-164"/>
      <point x="181" y="-164" type="curve" smooth="yes"/>
      <point x="337" y="-164"/>
      <point x="438" y="-85"/>
      <point x="465" y="45" type="curve" smooth="yes"/>
      <point x="566" y="524" type="line"/>
      <point x="480" y="524" type="line"/>
      <point x="422" y="251" type="line" smooth="yes"/>
      <point x="402" y="158"/>
      <point x="343" y="93"/>
      <point x="237" y="93" type="curve" smooth="yes"/>
      <point x="214" y="93"/>
      <point x="181" y="107"/>
      <point x="162" y="135" type="curve" smooth="yes"/>
      <point x="141" y="162"/>
      <point x="137" y="203"/>
      <point x="149" y="258" type="curve" smooth="yes"/>
      <point x="205" y="524" type="line"/>
      <point x="118" y="524" type="line"/>
      <point x="61" y="253" type="line" smooth="yes"/>
      <point x="30" y="105"/>
      <point x="92" y="15"/>
      <point x="227" y="15" type="curve" smooth="yes"/>
      <point x="265" y="15"/>
      <point x="276" y="21"/>
      <point x="308" y="33" type="curve" smooth="yes"/>
      <point x="338" y="44"/>
      <point x="364" y="58"/>
      <point x="387" y="84" type="curve"/>
      <point x="377" y="39" type="line" smooth="yes"/>
      <point x="358" y="-48"/>
      <point x="302" y="-90"/>
    </contour>
  </outline>
</glyph>
<glyph name="Lslash" format="2">
  <advance width="592"/>
  <unicode hex="0141"/>
  <outline>
    <component base="L" xOffset="0" yOffset="0"/>
    <contour>
      <point x="28" y="295" type="line"/>
      <point x="50" y="396" type="line"/>
      <point x="455" y="555" type="line"/>
      <point x="434" y="454" type="line"/>
    </contour>
  </outline>
</glyph>
<glyph name="lslash" format="2">
  <advance width="309"/>
  <unicode hex="0142"/>
  <outline>
    <component base="l" xOffset="0" yOffset="0"/>
    <contour>
      <point x="25" y="279" type="line"/>
      <point x="49" y="390" type="line"/>
      <point x="320" y="531" type="line"/>
      <point x="297" y="420" type="line"/>
    </contour>
  </outline>
</glyph>
<glyph name="Eng" format="2">
  <advance width="738"/>
  <unicode hex="014A"/>
  <outline>
    <contour>
      <point x="166" y="707" type="line"/>
      <point x="259" y="707" type="line"/>
      <point x="549" y="159" type="line"/>
      <point x="663" y="707" type="line"/>
      <point x="757" y="707" type="line"/>
      <point x="638" y="134" type="line"/>
      <point x="639" y="134" type="line"/>
      <point x="608" y="-15" type="line" smooth="yes"/>
      <point x="597" y="-69"/>
      <point x="575" y="-109"/>
      <point x="544" y="-134" type="curve" smooth="yes"/>
      <point x="513" y="-160"/>
      <point x="470" y="-173"/>
      <point x="415" y="-173" type="curve" smooth="yes"/>
      <point x="358" y="-173" type="line"/>
      <point x="374" y="-95" type="line"/>
      <point x="419" y="-95" type="line" smooth="yes"/>
      <point x="450" y="-95"/>
      <point x="474" y="-88"/>
      <point x="489" y="-75" type="curve" smooth="yes"/>
      <point x="505" y="-62"/>
      <point x="508" y="-41"/>
      <point x="515" y="-10" type="curve" smooth="yes"/>
      <point x="517" y="0" type="line"/>
      <point x="516" y="0" type="line"/>
      <point x="226" y="547" type="line"/>
      <point x="112" y="0" type="line"/>
      <point x="19" y="0" type="line"/>
    </contour>
  </outline>
</glyph>
<glyph name="eng" format="2">
  <advance width="585"/>
  <unicode hex="014B"/>
  <outline>
    <contour>
      <point x="123" y="524" type="line"/>
      <point x="209" y="524" type="line"/>
      <point x="194" y="454" type="line"/>
      <point x="219" y="479"/>
      <point x="246" y="498"/>
      <point x="277" y="511" type="curve" smooth="yes"/>
      <point x="308" y="524"/>
      <point x="341" y="530"/>
      <point x="377" y="530" type="curve" smooth="yes"/>
      <point x="439" y="530"/>
      <point x="483" y="512"/>
      <point x="510" y="477" type="curve" smooth="yes"/>
      <point x="537" y="442"/>
      <point x="544" y="393"/>
      <point x="531" y="330" type="curve" smooth="yes"/>
      <point x="459" y="-15" type="line" smooth="yes"/>
      <point x="448" y="-69"/>
      <point x="426" y="-109"/>
      <point x="395" y="-134" type="curve" smooth="yes"/>
      <point x="364" y="-160"/>
      <point x="321" y="-173"/>
      <point x="266" y="-173" type="curve" smooth="yes"/>
      <point x="209" y="-173" type="line"/>
      <point x="225" y="-95" type="line"/>
      <point x="270" y="-95" type="line" smooth="yes"/>
      <point x="301" y="-95"/>
      <point x="325" y="-88"/>
      <point x="340" y="-75" type="curve" smooth="yes"/>
      <point x="356" y="-62"/>
      <point x="366" y="-41"/>
      <point x="373" y="-10" type="curve" smooth="yes"/>
      <point x="441" y="318" type="line" smooth="yes"/>
      <point x="450" y="363"/>
      <point x="446" y="396"/>
      <point x="429" y="419" type="curve" smooth="yes"/>
      <point x="412" y="442"/>
      <point x="382" y="453"/>
      <point x="339" y="453" type="curve" smooth="yes"/>
      <point x="295" y="453"/>
      <point x="257" y="440"/>
      <point x="226" y="414" type="curve" smooth="yes"/>
      <point x="195" y="388"/>
      <point x="174" y="352"/>
      <point x="165" y="307" type="curve" smooth="yes"/>
      <point x="101" y="0" type="line"/>
      <point x="14" y="0" type="line"/>
    </contour>
  </outline>
</glyph>
<glyph name="OE" format="2">
  <advance width="1088"/>
  <unicode hex="0152"/>
  <outline>
    <contour>
      <point x="716" y="624" type="line"/>
      <point x="668" y="399" type="line"/>
      <point x="1010" y="399" type="line"/>
      <point x="992" y="317" type="line"/>
      <point x="650" y="317" type="line"/>
      <point x="600" y="83" type="line"/>
      <point x="998" y="83" type="line"/>
      <point x="980" y="0" type="line"/>
      <point x="489" y="0" type="line"/>
      <point x="498" y="39" type="line"/>
      <point x="425" y="-10"/>
      <point x="314" y="-10" type="qcurve" smooth="yes"/>
      <point x="196" y="-10"/>
      <point x="61" y="104"/>
      <point x="61" y="213" type="qcurve" smooth="yes"/>
      <point x="61" y="255"/>
      <point x="71" y="302" type="qcurve" smooth="yes"/>
      <point x="96" y="420" type="line" smooth="yes"/>
      <point x="128" y="574"/>
      <point x="293" y="718"/>
      <point x="425" y="718" type="qcurve" smooth="yes"/>
      <point x="492" y="718"/>
      <point x="594" y="680"/>
      <point x="627" y="643" type="qcurve"/>
      <point x="640" y="707" type="line"/>
      <point x="1130" y="707" type="line"/>
      <point x="1113" y="624" type="line"/>
    </contour>
    <contour>
      <point x="525" y="177"/>
      <point x="550" y="290" type="qcurve" smooth="yes"/>
      <point x="574" y="403" type="line" smooth="yes"/>
      <point x="583" y="448"/>
      <point x="584" y="482" type="qcurve" smooth="yes"/>
      <point x="584" y="558"/>
      <point x="499" y="635"/>
      <point x="420" y="635" type="qcurve" smooth="yes"/>
      <point x="325" y="635"/>
      <point x="213" y="530"/>
      <point x="187" y="414" type="qcurve" smooth="yes"/>
      <point x="163" y="299" type="line" smooth="yes"/>
      <point x="154" y="258"/>
      <point x="154" y="223" type="qcurve" smooth="yes"/>
      <point x="154" y="148"/>
      <point x="240" y="74"/>
      <point x="321" y="74" type="qcurve" smooth="yes"/>
      <point x="414" y="74"/>
    </contour>
  </outline>
</glyph>
<glyph name="oe" format="2">
  <advance width="951"/>
  <unicode hex="0153"/>
  <outline>
    <contour>
      <point x="908" y="356" type="curve" smooth="yes"/>
      <point x="908" y="333"/>
      <point x="906" y="310"/>
      <point x="901" y="287" type="curve" smooth="yes"/>
      <point x="892" y="242" type="line"/>
      <point x="518" y="242" type="line"/>
      <point x="514" y="221"/>
      <point x="512" y="201"/>
      <point x="512" y="183" type="curve" smooth="yes"/>
      <point x="512" y="143"/>
      <point x="524" y="114"/>
      <point x="547" y="96" type="curve" smooth="yes"/>
      <point x="570" y="77"/>
      <point x="602" y="68"/>
      <point x="642" y="68" type="curve" smooth="yes"/>
      <point x="680" y="68"/>
      <point x="711" y="76"/>
      <point x="736" y="93" type="curve" smooth="yes"/>
      <point x="760" y="109"/>
      <point x="776" y="133"/>
      <point x="784" y="165" type="curve"/>
      <point x="872" y="165" type="line"/>
      <point x="861" y="109"/>
      <point x="835" y="66"/>
      <point x="794" y="36" type="curve" smooth="yes"/>
      <point x="753" y="6"/>
      <point x="700" y="-9"/>
      <point x="637" y="-9" type="curve" smooth="yes"/>
      <point x="595" y="-9"/>
      <point x="558" y="-2"/>
      <point x="525" y="13" type="curve" smooth="yes"/>
      <point x="492" y="27"/>
      <point x="468" y="48"/>
      <point x="451" y="77" type="curve"/>
      <point x="404" y="20"/>
      <point x="339" y="-9"/>
      <point x="254" y="-9" type="curve" smooth="yes"/>
      <point x="191" y="-9"/>
      <point x="141" y="7"/>
      <point x="103" y="38" type="curve" smooth="yes"/>
      <point x="64" y="69"/>
      <point x="45" y="114"/>
      <point x="45" y="175" type="curve" smooth="yes"/>
      <point x="45" y="198"/>
      <point x="47" y="221"/>
      <point x="52" y="245" type="curve" smooth="yes"/>
      <point x="65" y="308" type="line" smooth="yes"/>
      <point x="81" y="383"/>
      <point x="111" y="439"/>
      <point x="156" y="476" type="curve" smooth="yes"/>
      <point x="200" y="513"/>
      <point x="256" y="532"/>
      <point x="325" y="532" type="curve" smooth="yes"/>
      <point x="367" y="532"/>
      <point x="404" y="525"/>
      <point x="436" y="511" type="curve" smooth="yes"/>
      <point x="467" y="497"/>
      <point x="491" y="476"/>
      <point x="508" y="449" type="curve"/>
      <point x="555" y="505"/>
      <point x="621" y="533"/>
      <point x="706" y="532" type="curve" smooth="yes"/>
      <point x="769" y="532"/>
      <point x="818" y="517"/>
      <point x="854" y="487" type="curve" smooth="yes"/>
      <point x="890" y="456"/>
      <point x="908" y="413"/>
    </contour>
    <contour>
      <point x="426" y="224" type="curve" smooth="yes"/>
      <point x="438" y="282" type="line" smooth="yes"/>
      <point x="442" y="300"/>
      <point x="444" y="319"/>
      <point x="444" y="339" type="curve" smooth="yes"/>
      <point x="444" y="379"/>
      <point x="433" y="408"/>
      <point x="411" y="427" type="curve" smooth="yes"/>
      <point x="388" y="446"/>
      <point x="357" y="455"/>
      <point x="317" y="455" type="curve" smooth="yes"/>
      <point x="273" y="455"/>
      <point x="237" y="443"/>
      <point x="210" y="419" type="curve" smooth="yes"/>
      <point x="182" y="395"/>
      <point x="162" y="355"/>
      <point x="151" y="300" type="curve" smooth="yes"/>
      <point x="138" y="242" type="line" smooth="yes"/>
      <point x="134" y="221"/>
      <point x="132" y="202"/>
      <point x="132" y="185" type="curve" smooth="yes"/>
      <point x="132" y="145"/>
      <point x="144" y="116"/>
      <point x="167" y="97" type="curve" smooth="yes"/>
      <point x="190" y="78"/>
      <point x="222" y="69"/>
      <point x="262" y="69" type="curve" smooth="yes"/>
      <point x="305" y="69"/>
      <point x="341" y="81"/>
      <point x="368" y="105" type="curve" smooth="yes"/>
      <point x="395" y="129"/>
      <point x="415" y="169"/>
    </contour>
    <contour>
      <point x="824" y="356" type="curve" smooth="yes"/>
      <point x="824" y="389"/>
      <point x="813" y="414"/>
      <point x="792" y="431" type="curve" smooth="yes"/>
      <point x="770" y="448"/>
      <point x="739" y="456"/>
      <point x="700" y="456" type="curve" smooth="yes"/>
      <point x="656" y="456"/>
      <point x="620" y="444"/>
      <point x="591" y="421" type="curve" smooth="yes"/>
      <point x="562" y="397"/>
      <point x="542" y="358"/>
      <point x="531" y="305" type="curve"/>
      <point x="818" y="305" type="line"/>
      <point x="820" y="318" type="line" smooth="yes"/>
      <point x="823" y="331"/>
      <point x="824" y="344"/>
    </contour>
  </outline>
</glyph>
<glyph name="Uogonek" format="2">
  <advance width="708"/>
  <unicode hex="0172"/>
  <outline>
    <component base="U"/>
    <contour>
      <point x="352" y="12" type="line"/>
      <point x="422" y="12" type="line"/>
      <point x="257" y="-58" type="line"/>
      <point x="286" y="-83"/>
      <point x="343" y="-94"/>
      <point x="399" y="-95" type="curve"/>
      <point x="386" y="-157" type="line"/>
      <point x="303" y="-156"/>
      <point x="238" y="-139"/>
      <point x="194" y="-106" type="curve" smooth="yes"/>
      <point x="172" y="-89"/>
      <point x="157" y="-67"/>
      <point x="151" y="-40" type="curve"/>
    </contour>
  </outline>
</glyph>
<glyph name="uogonek" format="2">
  <advance width="585"/>
  <unicode hex="0173"/>
  <outline>
    <component base="u"/>
    <contour>
      <point x="379" y="20" type="line"/>
      <point x="213" y="-58" type="line"/>
      <point x="242" y="-83"/>
      <point x="299" y="-94"/>
      <point x="355" y="-95" type="curve"/>
      <point x="342" y="-157" type="line"/>
      <point x="259" y="-156"/>
      <point x="194" y="-139"/>
      <point x="150" y="-106" type="curve" smooth="yes"/>
      <point x="128" y="-89"/>
      <point x="113" y="-67"/>
      <point x="107" y="-40" type="curve"/>
    </contour>
  </outline>
</glyph>
<glyph name="jcaron" format="2">
  <advance width="237"/>
  <unicode hex="01F0"/>
  <outline>
    <component base="caroncmb" xOffset="119"/>
    <contour>
      <point x="-126" y="-79" type="line"/>
      <point x="-80" y="-79" type="line" smooth="yes"/>
      <point x="-35" y="-79"/>
      <point x="12" y="-40"/>
      <point x="21" y="6" type="qcurve" smooth="yes"/>
      <point x="129" y="524" type="line"/>
      <point x="216" y="524" type="line"/>
      <point x="107" y="0" type="line" smooth="yes"/>
      <point x="91" y="-78"/>
      <point x="-7" y="-157"/>
      <point x="-87" y="-157" type="qcurve" smooth="yes"/>
      <point x="-143" y="-157" type="line"/>
    </contour>
  </outline>
</glyph>
<glyph name="ring" format="2">
  <advance width="512"/>
  <unicode hex="02DA"/>
  <outline>
    <contour>
      <point x="247" y="639"/>
      <point x="247" y="681" type="qcurve" smooth="yes"/>
      <point x="247" y="723"/>
      <point x="302" y="779"/>
      <point x="344" y="779" type="qcurve" smooth="yes"/>
      <point x="385" y="779"/>
      <point x="440" y="723"/>
      <point x="440" y="681" type="qcurve" smooth="yes"/>
      <point x="440" y="640"/>
      <point x="386" y="585"/>
      <point x="344" y="585" type="qcurve" smooth="yes"/>
      <point x="302" y="585"/>
    </contour>
    <contour>
      <point x="395" y="658"/>
      <point x="395" y="681" type="qcurve" smooth="yes"/>
      <point x="395" y="705"/>
      <point x="367" y="735"/>
      <point x="344" y="735" type="qcurve" smooth="yes"/>
      <point x="321" y="735"/>
      <point x="292" y="705"/>
      <point x="292" y="681" type="qcurve" smooth="yes"/>
      <point x="292" y="658"/>
      <point x="322" y="629"/>
      <point x="344" y="629" type="qcurve" smooth="yes"/>
      <point x="367" y="629"/>
    </contour>
  </outline>
</glyph>
<glyph name="ogonek" format="2">
  <advance width="512"/>
  <unicode hex="02DB"/>
  <outline>
    <contour>
      <point x="302" y="12" type="line"/>
      <point x="372" y="12" type="line"/>
      <point x="369" y="0" type="line"/>
      <point x="207" y="-58" type="line"/>
      <point x="236" y="-83"/>
      <point x="293" y="-94"/>
      <point x="349" y="-95" type="curve"/>
      <point x="336" y="-157" type="line"/>
      <point x="253" y="-156"/>
      <point x="188" y="-139"/>
      <point x="144" y="-106" type="curve" smooth="yes"/>
      <point x="122" y="-89"/>
      <point x="107" y="-67"/>
      <point x="101" y="-40" type="curve"/>
    </contour>
  </outline>
</glyph>
<glyph name="tilde" format="2">
  <advance width="505"/>
  <unicode hex="02DC"/>
  <outline>
    <contour>
      <point x="190" y="659" type="line"/>
      <point x="206" y="672"/>
      <point x="221" y="681"/>
      <point x="235" y="688" type="curve" smooth="yes"/>
      <point x="249" y="695"/>
      <point x="264" y="698"/>
      <point x="281" y="698" type="curve" smooth="yes"/>
      <point x="294" y="698"/>
      <point x="305" y="696"/>
      <point x="315" y="693" type="curve" smooth="yes"/>
      <point x="325" y="690"/>
      <point x="336" y="685"/>
      <point x="348" y="678" type="curve" smooth="yes"/>
      <point x="361" y="672"/>
      <point x="371" y="667"/>
      <point x="380" y="664" type="curve" smooth="yes"/>
      <point x="388" y="661"/>
      <point x="398" y="659"/>
      <point x="410" y="659" type="curve" smooth="yes"/>
      <point x="425" y="659"/>
      <point x="439" y="662"/>
      <point x="451" y="668" type="curve" smooth="yes"/>
      <point x="462" y="674"/>
      <point x="478" y="684"/>
      <point x="498" y="698" type="curve"/>
      <point x="482" y="626" type="line"/>
      <point x="467" y="613"/>
      <point x="452" y="604"/>
      <point x="439" y="598" type="curve" smooth="yes"/>
      <point x="425" y="591"/>
      <point x="410" y="588"/>
      <point x="393" y="588" type="curve" smooth="yes"/>
      <point x="380" y="588"/>
      <point x="368" y="590"/>
      <point x="358" y="593" type="curve" smooth="yes"/>
      <point x="348" y="596"/>
      <point x="337" y="601"/>
      <point x="324" y="608" type="curve" smooth="yes"/>
      <point x="313" y="614"/>
      <point x="303" y="619"/>
      <point x="294" y="622" type="curve" smooth="yes"/>
      <point x="285" y="625"/>
      <point x="275" y="627"/>
      <point x="264" y="627" type="curve" smooth="yes"/>
      <point x="249" y="627"/>
      <point x="236" y="624"/>
      <point x="224" y="618" type="curve" smooth="yes"/>
      <point x="211" y="612"/>
      <point x="195" y="602"/>
      <point x="175" y="587" type="curve"/>
    </contour>
  </outline>
</glyph>
<glyph name="ringcmb" format="2">
  <unicode hex="030A"/>
  <outline>
    <contour>
      <point x="-9" y="640"/>
      <point x="-9" y="681" type="qcurve" smooth="yes"/>
      <point x="-9" y="723"/>
      <point x="46" y="779"/>
      <point x="87" y="779" type="qcurve" smooth="yes"/>
      <point x="129" y="779"/>
      <point x="184" y="723"/>
      <point x="184" y="681" type="qcurve" smooth="yes"/>
      <point x="184" y="639"/>
      <point x="129" y="585"/>
      <point x="87" y="585" type="qcurve" smooth="yes"/>
      <point x="46" y="585"/>
    </contour>
    <contour>
      <point x="139" y="658"/>
      <point x="139" y="681" type="qcurve" smooth="yes"/>
      <point x="139" y="705"/>
      <point x="110" y="735"/>
      <point x="87" y="735" type="qcurve" smooth="yes"/>
      <point x="65" y="735"/>
      <point x="36" y="703"/>
      <point x="36" y="681" type="qcurve" smooth="yes"/>
      <point x="36" y="658"/>
      <point x="66" y="629"/>
      <point x="87" y="629" type="qcurve" smooth="yes"/>
      <point x="110" y="629"/>
    </contour>
  </outline>
</glyph>
<glyph name="hungarumlautcmb" format="2">
  <unicode hex="030B"/>
  <outline>
    <contour>
      <point x="168" y="721" type="line"/>
      <point x="280" y="721" type="line"/>
      <point x="123" y="591" type="line"/>
      <point x="40" y="591" type="line"/>
    </contour>
    <contour>
      <point x="-2" y="721" type="line"/>
      <point x="110" y="721" type="line"/>
      <point x="-47" y="591" type="line"/>
      <point x="-130" y="591" type="line"/>
    </contour>
  </outline>
</glyph>
<glyph name="caroncmb.alt" format="2">
  <advance width="600"/>
  <unicode hex="030C"/>
  <outline>
    <contour>
      <point x="51" y="707" type="line"/>
      <point x="134" y="707" type="line"/>
      <point x="114" y="613" type="line"/>
      <point x="16" y="539" type="line"/>
    </contour>
  </outline>
</glyph>
<glyph name="dotbelowcomb" format="2">
  <unicode hex="0323"/>
  <outline>
    <contour>
      <point x="-120" y="-86" type="line"/>
      <point x="-30" y="-86" type="line"/>
      <point x="-50" y="-181" type="line"/>
      <point x="-141" y="-181" type="line"/>
    </contour>
  </outline>
</glyph>
<glyph name="alpha" format="2">
  <advance width="709"/>
  <unicode hex="03B1"/>
  <outline>
    <contour>
      <point x="444" y="339" type="qcurve" smooth="yes"/>
      <point x="444" y="455"/>
      <point x="317" y="455" type="qcurve" smooth="yes"/>
      <point x="251" y="455"/>
      <point x="168" y="383"/>
      <point x="151" y="300" type="qcurve" smooth="yes"/>
      <point x="138" y="242" type="line" smooth="yes"/>
      <point x="132" y="210"/>
      <point x="132" y="185" type="qcurve" smooth="yes"/>
      <point x="132" y="125"/>
      <point x="202" y="69"/>
      <point x="262" y="69" type="qcurve" smooth="yes"/>
      <point x="327" y="69"/>
      <point x="409" y="141"/>
      <point x="426" y="224" type="qcurve" smooth="yes"/>
      <point x="438" y="282" type="line" smooth="yes"/>
      <point x="444" y="309"/>
    </contour>
    <contour>
      <point x="45" y="175" type="qcurve" smooth="yes"/>
      <point x="45" y="209"/>
      <point x="52" y="245" type="qcurve" smooth="yes"/>
      <point x="65" y="308" type="line" smooth="yes"/>
      <point x="89" y="420"/>
      <point x="222" y="532"/>
      <point x="325" y="532" type="qcurve" smooth="yes"/>
      <point x="419" y="532"/>
      <point x="476" y="486" type="qcurve" smooth="yes"/>
      <point x="503" y="465"/>
      <point x="517" y="435" type="qcurve"/>
      <point x="534" y="458"/>
      <point x="555" y="476" type="qcurve" smooth="yes"/>
      <point x="620" y="530"/>
      <point x="719" y="532" type="qcurve"/>
      <point x="709" y="455" type="line"/>
      <point x="648" y="453"/>
      <point x="610" y="419" type="qcurve" smooth="yes"/>
      <point x="570" y="383"/>
      <point x="551" y="300" type="qcurve" smooth="yes"/>
      <point x="538" y="242" type="line" smooth="yes"/>
      <point x="531" y="210"/>
      <point x="532" y="185" type="qcurve" smooth="yes"/>
      <point x="532" y="125"/>
      <point x="567" y="97" type="qcurve" smooth="yes"/>
      <point x="601" y="70"/>
      <point x="658" y="69" type="qcurve"/>
      <point x="647" y="-9" type="line"/>
      <point x="558" y="-7"/>
      <point x="502" y="38" type="qcurve" smooth="yes"/>
      <point x="476" y="59"/>
      <point x="461" y="90" type="qcurve"/>
      <point x="444" y="66"/>
      <point x="422" y="47" type="qcurve" smooth="yes"/>
      <point x="354" y="-9"/>
      <point x="254" y="-9" type="qcurve" smooth="yes"/>
      <point x="160" y="-9"/>
      <point x="45" y="84"/>
    </contour>
  </outline>
</glyph>
<glyph name="Eukrcyr" format="2">
  <advance width="696"/>
  <unicode hex="0404"/>
  <guideline x="357" y="0" angle="90" name="h1"/>
  <anchor x="357" y="760" name="top"/>
  <outline>
    <contour>
      <point x="184" y="401" type="curve"/>
      <point x="460" y="401" type="line"/>
      <point x="443" y="319" type="line"/>
      <point x="167" y="319" type="line"/>
      <point x="164" y="301" type="line" smooth="yes"/>
      <point x="132" y="148"/>
      <point x="183" y="75"/>
      <point x="321" y="75" type="curve" smooth="yes"/>
      <point x="439" y="75"/>
      <point x="514" y="125"/>
      <point x="533" y="218" type="curve" smooth="yes"/>
      <point x="534" y="222" type="line"/>
      <point x="626" y="222" type="line"/>
      <point x="625" y="217" type="line" smooth="yes"/>
      <point x="596" y="77"/>
      <point x="472" y="-9"/>
      <point x="301" y="-9" type="curve" smooth="yes"/>
      <point x="109" y="-9"/>
      <point x="28" y="100"/>
      <point x="70" y="302" type="curve" smooth="yes"/>
      <point x="91" y="406" type="line" smooth="yes"/>
      <point x="133" y="608"/>
      <point x="260" y="717"/>
      <point x="454" y="717" type="curve" smooth="yes"/>
      <point x="625" y="717"/>
      <point x="712" y="632"/>
      <point x="683" y="492" type="curve" smooth="yes"/>
      <point x="682" y="486" type="line"/>
      <point x="589" y="486" type="line"/>
      <point x="590" y="490" type="line" smooth="yes"/>
      <point x="609" y="582"/>
      <point x="554" y="633"/>
      <point x="436" y="633" type="curve" smooth="yes"/>
      <point x="298" y="633"/>
      <point x="217" y="559"/>
    </contour>
  </outline>
</glyph>
<glyph name="Gecyr" format="2">
  <advance width="604"/>
  <unicode hex="0413"/>
  <guideline x="326" y="0" angle="90" name="h1"/>
  <anchor x="326" y="760" name="top"/>
  <outline>
    <contour>
      <point x="166" y="707" type="line"/>
      <point x="659" y="707" type="line"/>
      <point x="642" y="624" type="line"/>
      <point x="242" y="624" type="line"/>
      <point x="112" y="0" type="line"/>
      <point x="19" y="0" type="line"/>
    </contour>
  </outline>
</glyph>
<glyph name="Decyr" format="2">
  <advance width="643"/>
  <unicode hex="0414"/>
  <outline>
    <contour>
      <point x="450" y="0" type="line"/>
      <point x="540" y="0" type="line"/>
      <point x="540" y="-170" type="line"/>
      <point x="633" y="-170" type="line"/>
      <point x="633" y="83" type="line"/>
      <point x="450" y="83" type="line"/>
    </contour>
    <contour>
      <point x="91" y="0" type="line"/>
      <point x="165" y="62"/>
      <point x="246" y="248"/>
      <point x="257" y="375" type="curve" smooth="yes"/>
      <point x="287" y="707" type="line"/>
      <point x="194" y="707" type="line"/>
      <point x="164" y="411" type="line" smooth="yes"/>
      <point x="150" y="273"/>
      <point x="113" y="150"/>
      <point x="49" y="83" type="curve"/>
    </contour>
    <contour>
      <point x="484" y="0" type="line"/>
      <point x="577" y="0" type="line"/>
      <point x="577" y="707" type="line"/>
      <point x="484" y="707" type="line"/>
    </contour>
    <contour>
      <point x="205" y="625" type="line"/>
      <point x="501" y="625" type="line"/>
      <point x="501" y="707" type="line"/>
      <point x="205" y="707" type="line"/>
    </contour>
    <contour>
      <point x="200" y="0" type="line"/>
      <point x="470" y="0" type="line"/>
      <point x="470" y="83" type="line"/>
      <point x="200" y="83" type="line"/>
    </contour>
    <contour>
      <point x="10" y="-170" type="line"/>
      <point x="103" y="-170" type="line"/>
      <point x="103" y="0" type="line"/>
      <point x="220" y="0" type="line"/>
      <point x="220" y="83" type="line"/>
      <point x="10" y="83" type="line"/>
    </contour>
  </outline>
</glyph>
<glyph name="Zhecyr" format="2">
  <advance width="1139"/>
  <unicode hex="0416"/>
  <outline>
    <contour>
      <point x="135" y="707" type="line"/>
      <point x="238" y="707" type="line"/>
      <point x="403" y="401" type="line"/>
      <point x="551" y="401" type="line"/>
      <point x="615" y="707" type="line"/>
      <point x="708" y="707" type="line"/>
      <point x="644" y="401" type="line"/>
      <point x="792" y="401" type="line"/>
      <point x="1085" y="707" type="line"/>
      <point x="1188" y="707" type="line"/>
      <point x="868" y="371" type="line"/>
      <point x="1074" y="0" type="line"/>
      <point x="962" y="0" type="line"/>
      <point x="779" y="319" type="line"/>
      <point x="627" y="319" type="line"/>
      <point x="561" y="0" type="line"/>
      <point x="468" y="0" type="line"/>
      <point x="534" y="319" type="line"/>
      <point x="382" y="319" type="line"/>
      <point x="67" y="0" type="line"/>
      <point x="-45" y="0" type="line"/>
      <point x="315" y="371" type="line"/>
    </contour>
  </outline>
</glyph>
<glyph name="Zecyr" format="2">
  <advance width="642"/>
  <unicode hex="0417"/>
  <outline>
    <contour>
      <point x="69" y="237" type="line"/>
      <point x="162" y="237" type="line"/>
      <point x="161" y="229" type="line" smooth="yes"/>
      <point x="144" y="151"/>
      <point x="187" y="82"/>
      <point x="299" y="82" type="curve" smooth="yes"/>
      <point x="395" y="82"/>
      <point x="459" y="121"/>
      <point x="476" y="203" type="curve" smooth="yes"/>
      <point x="478" y="212" type="line" smooth="yes"/>
      <point x="491" y="273"/>
      <point x="455" y="321"/>
      <point x="363" y="321" type="curve" smooth="yes"/>
      <point x="237" y="321" type="line"/>
      <point x="254" y="402" type="line"/>
      <point x="378" y="402" type="line" smooth="yes"/>
      <point x="454" y="402"/>
      <point x="514" y="441"/>
      <point x="526" y="498" type="curve" smooth="yes"/>
      <point x="529" y="513" type="line" smooth="yes"/>
      <point x="542" y="579"/>
      <point x="492" y="625"/>
      <point x="406" y="625" type="curve" smooth="yes"/>
      <point x="303" y="625"/>
      <point x="233" y="560"/>
      <point x="213" y="479" type="curve" smooth="yes"/>
      <point x="211" y="470" type="line"/>
      <point x="118" y="470" type="line"/>
      <point x="120" y="479" type="line" smooth="yes"/>
      <point x="149" y="604"/>
      <point x="266" y="707"/>
      <point x="421" y="707" type="curve" smooth="yes"/>
      <point x="569" y="707"/>
      <point x="646" y="636"/>
      <point x="622" y="520" type="curve" smooth="yes"/>
      <point x="620" y="508" type="line" smooth="yes"/>
      <point x="606" y="443"/>
      <point x="557" y="389"/>
      <point x="493" y="368" type="curve"/>
      <point x="554" y="346"/>
      <point x="586" y="282"/>
      <point x="571" y="212" type="curve" smooth="yes"/>
      <point x="568" y="197" type="line" smooth="yes"/>
      <point x="541" y="69"/>
      <point x="434" y="0"/>
      <point x="280" y="0" type="curve" smooth="yes"/>
      <point x="119" y="0"/>
      <point x="41" y="102"/>
      <point x="68" y="229" type="curve" smooth="yes"/>
    </contour>
  </outline>
</glyph>
<glyph name="Icyr" format="2">
  <advance width="672"/>
  <unicode hex="0418"/>
  <guideline x="324" y="0" angle="90" name="h1"/>
  <anchor x="324" y="760" name="top"/>
  <outline>
    <contour>
      <point x="19" y="0" type="line"/>
      <point x="122" y="0" type="line"/>
      <point x="570" y="584" type="line"/>
      <point x="449" y="0" type="line"/>
      <point x="542" y="0" type="line"/>
      <point x="689" y="707" type="line"/>
      <point x="586" y="707" type="line"/>
      <point x="137" y="122" type="line"/>
      <point x="259" y="707" type="line"/>
      <point x="166" y="707" type="line"/>
    </contour>
  </outline>
</glyph>
<glyph name="Kacyr" format="2">
  <advance width="687"/>
  <unicode hex="041A"/>
  <guideline x="324" y="0" angle="90" name="h1"/>
  <anchor x="324" y="760" name="top"/>
  <outline>
    <contour>
      <point x="166" y="707" type="line"/>
      <point x="259" y="707" type="line"/>
      <point x="195" y="401" type="line"/>
      <point x="343" y="401" type="line"/>
      <point x="636" y="707" type="line"/>
      <point x="739" y="707" type="line"/>
      <point x="419" y="371" type="line"/>
      <point x="625" y="0" type="line"/>
      <point x="513" y="0" type="line"/>
      <point x="330" y="319" type="line"/>
      <point x="178" y="319" type="line"/>
      <point x="112" y="0" type="line"/>
      <point x="19" y="0" type="line"/>
    </contour>
  </outline>
</glyph>
<glyph name="Ucyr" format="2">
  <advance width="594"/>
  <unicode hex="0423"/>
  <guideline x="297" y="0" angle="90" name="h1"/>
  <anchor x="297" y="760" name="top"/>
  <outline>
    <contour>
      <point x="98" y="707" type="line"/>
      <point x="203" y="707" type="line"/>
      <point x="312" y="312" type="line"/>
      <point x="575" y="707" type="line"/>
      <point x="680" y="707" type="line"/>
      <point x="287" y="145" type="line" smooth="yes"/>
      <point x="219" y="47"/>
      <point x="150" y="0"/>
      <point x="75" y="0" type="curve" smooth="yes"/>
      <point x="43" y="0" type="line"/>
      <point x="60" y="80" type="line"/>
      <point x="81" y="80" type="line" smooth="yes"/>
      <point x="120" y="80"/>
      <point x="182" y="127"/>
      <point x="224" y="188" type="curve" smooth="yes"/>
      <point x="240" y="212" type="line"/>
    </contour>
  </outline>
</glyph>
<glyph name="Efcyr" format="2">
  <advance width="765"/>
  <unicode hex="0424"/>
  <guideline x="613" y="0" angle="90" name="h1"/>
  <anchor x="613" y="760" name="top"/>
  <outline>
    <contour>
      <point x="358" y="125" type="line"/>
      <point x="221" y="125"/>
      <point x="157" y="197"/>
      <point x="157" y="351" type="curve" smooth="yes"/>
      <point x="157" y="360" type="line" smooth="yes"/>
      <point x="157" y="519"/>
      <point x="221" y="593"/>
      <point x="358" y="593" type="curve"/>
      <point x="358" y="677" type="line"/>
      <point x="165" y="677"/>
      <point x="63" y="568"/>
      <point x="63" y="366" type="curve" smooth="yes"/>
      <point x="63" y="352" type="line" smooth="yes"/>
      <point x="63" y="150"/>
      <point x="168" y="41"/>
      <point x="358" y="41" type="curve"/>
    </contour>
    <contour>
      <point x="338" y="0" type="line"/>
      <point x="431" y="0" type="line"/>
      <point x="431" y="707" type="line"/>
      <point x="338" y="707" type="line"/>
    </contour>
    <contour>
      <point x="411" y="41" type="line"/>
      <point x="604" y="41"/>
      <point x="705" y="149"/>
      <point x="705" y="352" type="curve" smooth="yes"/>
      <point x="705" y="366" type="line" smooth="yes"/>
      <point x="705" y="568"/>
      <point x="601" y="677"/>
      <point x="411" y="677" type="curve"/>
      <point x="411" y="593" type="line"/>
      <point x="548" y="593"/>
      <point x="613" y="518"/>
      <point x="613" y="360" type="curve" smooth="yes"/>
      <point x="613" y="351" type="line" smooth="yes"/>
      <point x="613" y="198"/>
      <point x="548" y="125"/>
      <point x="411" y="125" type="curve"/>
    </contour>
  </outline>
</glyph>
<glyph name="Tsecyr" format="2">
  <advance width="648"/>
  <unicode hex="0426"/>
  <outline>
    <contour>
      <point x="489" y="0" type="line"/>
      <point x="582" y="0" type="line"/>
      <point x="582" y="707" type="line"/>
      <point x="489" y="707" type="line"/>
    </contour>
    <contour>
      <point x="135" y="0" type="line"/>
      <point x="525" y="0" type="line"/>
      <point x="525" y="83" type="line"/>
      <point x="135" y="83" type="line"/>
    </contour>
    <contour>
      <point x="74" y="0" type="line"/>
      <point x="167" y="0" type="line"/>
      <point x="167" y="707" type="line"/>
      <point x="74" y="707" type="line"/>
    </contour>
    <contour>
      <point x="455" y="0" type="line"/>
      <point x="545" y="0" type="line"/>
      <point x="545" y="-170" type="line"/>
      <point x="638" y="-170" type="line"/>
      <point x="638" y="83" type="line"/>
      <point x="455" y="83" type="line"/>
    </contour>
  </outline>
</glyph>
<glyph name="Checyr" format="2">
  <advance width="710"/>
  <unicode hex="0427"/>
  <outline>
    <contour>
      <point x="166" y="707" type="line"/>
      <point x="259" y="707" type="line"/>
      <point x="214" y="489" type="line" smooth="yes"/>
      <point x="188" y="367"/>
      <point x="238" y="306"/>
      <point x="363" y="306" type="curve" smooth="yes"/>
      <point x="441" y="306"/>
      <point x="528" y="329"/>
      <point x="561" y="358" type="curve"/>
      <point x="634" y="707" type="line"/>
      <point x="728" y="707" type="line"/>
      <point x="581" y="0" type="line"/>
      <point x="487" y="0" type="line"/>
      <point x="542" y="264" type="line"/>
      <point x="487" y="238"/>
      <point x="419" y="224"/>
      <point x="346" y="224" type="curve" smooth="yes"/>
      <point x="169" y="224"/>
      <point x="85" y="319"/>
      <point x="119" y="483" type="curve" smooth="yes"/>
    </contour>
  </outline>
</glyph>
<glyph name="Shchacyr" format="2">
  <advance width="851"/>
  <unicode hex="0429"/>
  <outline>
    <contour>
      <point x="75" y="0" type="line"/>
      <point x="169" y="0" type="line"/>
      <point x="169" y="707" type="line"/>
      <point x="75" y="707" type="line"/>
    </contour>
    <contour>
      <point x="371" y="0" type="line"/>
      <point x="465" y="0" type="line"/>
      <point x="465" y="707" type="line"/>
      <point x="371" y="707" type="line"/>
    </contour>
    <contour>
      <point x="667" y="0" type="line"/>
      <point x="761" y="0" type="line"/>
      <point x="761" y="707" type="line"/>
      <point x="667" y="707" type="line"/>
    </contour>
    <contour>
      <point x="125" y="0" type="line"/>
      <point x="715" y="0" type="line"/>
      <point x="715" y="83" type="line"/>
      <point x="125" y="83" type="line"/>
    </contour>
    <contour>
      <point x="657" y="0" type="line"/>
      <point x="747" y="0" type="line"/>
      <point x="747" y="-170" type="line"/>
      <point x="840" y="-170" type="line"/>
      <point x="840" y="83" type="line"/>
      <point x="657" y="83" type="line"/>
    </contour>
  </outline>
</glyph>
<glyph name="Softcyr" format="2">
  <advance width="683"/>
  <unicode hex="042C"/>
  <guideline x="315" y="0" angle="90" name="h1"/>
  <guideline x="315" y="0" angle="90" name="h1"/>
  <anchor x="315" y="760" name="top"/>
  <outline>
    <contour>
      <point x="166" y="707" type="line"/>
      <point x="259" y="707" type="line"/>
      <point x="200" y="423" type="line"/>
      <point x="413" y="423" type="line" smooth="yes"/>
      <point x="571" y="423"/>
      <point x="641" y="349"/>
      <point x="612" y="212" type="curve" smooth="yes"/>
      <point x="583" y="74"/>
      <point x="483" y="0"/>
      <point x="325" y="0" type="curve" smooth="yes"/>
      <point x="19" y="0" type="line"/>
    </contour>
    <contour>
      <point x="398" y="340" type="curve" smooth="yes"/>
      <point x="183" y="340" type="line"/>
      <point x="129" y="83" type="line"/>
      <point x="338" y="83" type="line" smooth="yes"/>
      <point x="446" y="83"/>
      <point x="499" y="121"/>
      <point x="518" y="213" type="curve" smooth="yes"/>
      <point x="537" y="301"/>
      <point x="500" y="340"/>
    </contour>
  </outline>
</glyph>
<glyph name="Yucyr" format="2">
  <advance width="901"/>
  <unicode hex="042E"/>
  <guideline x="495" y="0" angle="90" name="h1"/>
  <anchor x="495" y="760" name="top"/>
  <outline>
    <component base="O" xOffset="190"/>
    <contour>
      <point x="147" y="319" type="line"/>
      <point x="299" y="319" type="line"/>
      <point x="299" y="401" type="line"/>
      <point x="147" y="401" type="line"/>
    </contour>
    <contour>
      <point x="74" y="0" type="line"/>
      <point x="167" y="0" type="line"/>
      <point x="167" y="707" type="line"/>
      <point x="74" y="707" type="line"/>
    </contour>
  </outline>
</glyph>
<glyph name="becyr" format="2">
  <advance width="585"/>
  <unicode hex="0431"/>
  <outline>
    <contour>
      <point x="237" y="-9" type="curve" smooth="yes"/>
      <point x="83" y="-9"/>
      <point x="14" y="75"/>
      <point x="46" y="232" type="curve" smooth="yes"/>
      <point x="84" y="412" type="line" smooth="yes"/>
      <point x="149" y="725"/>
      <point x="384" y="621"/>
      <point x="558" y="707" type="curve"/>
      <point x="540" y="620" type="line"/>
      <point x="402" y="553"/>
      <point x="215" y="626"/>
      <point x="169" y="403" type="curve" smooth="yes"/>
      <point x="172" y="403" type="line"/>
      <point x="209" y="455"/>
      <point x="284" y="486"/>
      <point x="362" y="486" type="curve" smooth="yes"/>
      <point x="492" y="486"/>
      <point x="561" y="402"/>
      <point x="528" y="245" type="curve" smooth="yes"/>
      <point x="525" y="232" type="line" smooth="yes"/>
      <point x="493" y="75"/>
      <point x="389" y="-9"/>
    </contour>
    <contour>
      <point x="252" y="68" type="curve" smooth="yes"/>
      <point x="353" y="68"/>
      <point x="415" y="120"/>
      <point x="439" y="234" type="curve" smooth="yes"/>
      <point x="441" y="243" type="line" smooth="yes"/>
      <point x="464" y="356"/>
      <point x="424" y="408"/>
      <point x="323" y="408" type="curve" smooth="yes"/>
      <point x="221" y="408"/>
      <point x="159" y="356"/>
      <point x="136" y="243" type="curve" smooth="yes"/>
      <point x="134" y="234" type="line" smooth="yes"/>
      <point x="110" y="120"/>
      <point x="150" y="68"/>
    </contour>
  </outline>
</glyph>
<glyph name="zhecyr" format="2">
  <advance width="909"/>
  <unicode hex="0436"/>
  <outline>
    <component base="kacyr" xOffset="342"/>
    <contour>
      <point x="373" y="277" type="line"/>
      <point x="130" y="524" type="line"/>
      <point x="21" y="524" type="line"/>
      <point x="269" y="277" type="line"/>
    </contour>
    <contour>
      <point x="116" y="0" type="line"/>
      <point x="311" y="277" type="line"/>
      <point x="251" y="337" type="line"/>
      <point x="13" y="0" type="line"/>
    </contour>
    <contour>
      <point x="431" y="243" type="line"/>
      <point x="431" y="322" type="line"/>
      <point x="256" y="322" type="line"/>
      <point x="256" y="243" type="line"/>
    </contour>
  </outline>
</glyph>
<glyph name="zecyr" format="2">
  <advance width="591"/>
  <unicode hex="0437"/>
  <outline>
    <contour>
      <point x="347" y="535" type="curve" smooth="yes"/>
      <point x="481" y="535"/>
      <point x="557" y="478"/>
      <point x="539" y="391" type="curve" smooth="yes"/>
      <point x="538" y="384" type="line" smooth="yes"/>
      <point x="529" y="341"/>
      <point x="496" y="303"/>
      <point x="457" y="291" type="curve"/>
      <point x="456" y="288" type="line"/>
      <point x="500" y="269"/>
      <point x="516" y="230"/>
      <point x="504" y="171" type="curve" smooth="yes"/>
      <point x="501" y="161" type="line" smooth="yes"/>
      <point x="480" y="57"/>
      <point x="377" y="-9"/>
      <point x="235" y="-9" type="curve" smooth="yes"/>
      <point x="99" y="-9"/>
      <point x="12" y="58"/>
      <point x="29" y="147" type="curve" smooth="yes"/>
      <point x="32" y="164" type="line"/>
      <point x="121" y="164" type="line"/>
      <point x="118" y="149" type="line" smooth="yes"/>
      <point x="110" y="104"/>
      <point x="170" y="68"/>
      <point x="255" y="68" type="curve" smooth="yes"/>
      <point x="346" y="68"/>
      <point x="402" y="99"/>
      <point x="413" y="156" type="curve" smooth="yes"/>
      <point x="416" y="168" type="line" smooth="yes"/>
      <point x="424" y="209"/>
      <point x="402" y="243"/>
      <point x="365" y="243" type="curve" smooth="yes"/>
      <point x="232" y="243" type="line"/>
      <point x="248" y="322" type="line"/>
      <point x="382" y="322" type="line" smooth="yes"/>
      <point x="412" y="322"/>
      <point x="444" y="350"/>
      <point x="450" y="382" type="curve" smooth="yes"/>
      <point x="453" y="393" type="line" smooth="yes"/>
      <point x="461" y="431"/>
      <point x="410" y="457"/>
      <point x="329" y="457" type="curve" smooth="yes"/>
      <point x="245" y="457"/>
      <point x="175" y="422"/>
      <point x="165" y="376" type="curve" smooth="yes"/>
      <point x="162" y="360" type="line"/>
      <point x="74" y="360" type="line"/>
      <point x="77" y="375" type="line" smooth="yes"/>
      <point x="97" y="473"/>
      <point x="202" y="535"/>
    </contour>
  </outline>
</glyph>
<glyph name="icyr" format="2">
  <advance width="615"/>
  <unicode hex="0438"/>
  <guideline x="302" y="0" angle="90" name="h1"/>
  <anchor x="302" y="586" name="top"/>
  <outline>
    <contour>
      <point x="123" y="524" type="line"/>
      <point x="210" y="524" type="line"/>
      <point x="124" y="106" type="line"/>
      <point x="503" y="524" type="line"/>
      <point x="600" y="524" type="line"/>
      <point x="491" y="0" type="line"/>
      <point x="404" y="0" type="line"/>
      <point x="492" y="418" type="line"/>
      <point x="111" y="0" type="line"/>
      <point x="14" y="0" type="line"/>
    </contour>
  </outline>
</glyph>
<glyph name="elcyr" format="2">
  <advance width="529"/>
  <unicode hex="043B"/>
  <guideline x="92" y="524" angle="265.119"/>
  <guideline x="150" y="140" angle="85.6812"/>
  <outline>
    <contour>
      <point x="146" y="524" type="line"/>
      <point x="514" y="524" type="line"/>
      <point x="405" y="0" type="line"/>
      <point x="318" y="0" type="line"/>
      <point x="411" y="445" type="line"/>
      <point x="211" y="445" type="line"/>
      <point x="124" y="140" type="line" smooth="yes"/>
      <point x="98" y="47"/>
      <point x="41" y="0"/>
      <point x="-44" y="0" type="curve"/>
      <point x="-28" y="79" type="line"/>
      <point x="-9" y="79"/>
      <point x="19" y="91"/>
      <point x="39" y="161" type="curve" smooth="yes"/>
    </contour>
  </outline>
</glyph>
<glyph name="emcyr" format="2">
  <advance width="796"/>
  <unicode hex="043C"/>
  <outline>
    <contour>
      <point x="70" y="0" type="line"/>
      <point x="157" y="0" type="line"/>
      <point x="157" y="420" type="line"/>
      <point x="370" y="60" type="line"/>
      <point x="426" y="60" type="line"/>
      <point x="640" y="420" type="line"/>
      <point x="640" y="0" type="line"/>
      <point x="727" y="0" type="line"/>
      <point x="727" y="524" type="line"/>
      <point x="613" y="524" type="line"/>
      <point x="397" y="164" type="line"/>
      <point x="183" y="524" type="line"/>
      <point x="70" y="524" type="line"/>
    </contour>
  </outline>
</glyph>
<glyph name="pecyr" format="2">
  <advance width="576"/>
  <unicode hex="043F"/>
  <outline>
    <contour>
      <point x="123" y="524" type="line"/>
      <point x="561" y="524" type="line"/>
      <point x="452" y="0" type="line"/>
      <point x="365" y="0" type="line"/>
      <point x="458" y="445" type="line"/>
      <point x="194" y="445" type="line"/>
      <point x="101" y="0" type="line"/>
      <point x="14" y="0" type="line"/>
    </contour>
  </outline>
</glyph>
<glyph name="tecyr" format="2">
  <advance width="407"/>
  <unicode hex="0442"/>
  <guideline x="204" y="0" angle="90" name="h1"/>
  <anchor x="204" y="586" name="top"/>
  <outline>
    <contour>
      <point x="24" y="445" type="line"/>
      <point x="384" y="445" type="line"/>
      <point x="384" y="524" type="line"/>
      <point x="24" y="524" type="line"/>
    </contour>
    <contour>
      <point x="160" y="0" type="line"/>
      <point x="247" y="0" type="line"/>
      <point x="247" y="524" type="line"/>
      <point x="160" y="524" type="line"/>
    </contour>
  </outline>
</glyph>
<glyph name="checyr" format="2">
  <advance width="586"/>
  <unicode hex="0447"/>
  <outline>
    <contour>
      <point x="123" y="524" type="line"/>
      <point x="210" y="524" type="line"/>
      <point x="184" y="397" type="line" smooth="yes"/>
      <point x="163" y="300"/>
      <point x="199" y="251"/>
      <point x="290" y="251" type="curve" smooth="yes"/>
      <point x="360" y="251"/>
      <point x="392" y="256"/>
      <point x="432" y="274" type="curve"/>
      <point x="484" y="524" type="line"/>
      <point x="571" y="524" type="line"/>
      <point x="462" y="0" type="line"/>
      <point x="375" y="0" type="line"/>
      <point x="417" y="204" type="line"/>
      <point x="366" y="180"/>
      <point x="319" y="173"/>
      <point x="243" y="173" type="curve" smooth="yes"/>
      <point x="118" y="173"/>
      <point x="66" y="249"/>
      <point x="95" y="388" type="curve" smooth="yes"/>
    </contour>
  </outline>
</glyph>
<glyph name="shacyr" format="2">
  <advance width="785"/>
  <unicode hex="0448"/>
  <outline>
    <contour>
      <point x="376" y="0" type="line"/>
      <point x="690" y="0" type="line"/>
      <point x="690" y="79" type="line"/>
      <point x="376" y="79" type="line"/>
    </contour>
    <contour>
      <point x="96" y="0" type="line"/>
      <point x="410" y="0" type="line"/>
      <point x="410" y="79" type="line"/>
      <point x="96" y="79" type="line"/>
    </contour>
    <contour>
      <point x="629" y="0" type="line"/>
      <point x="716" y="0" type="line"/>
      <point x="716" y="524" type="line"/>
      <point x="629" y="524" type="line"/>
    </contour>
    <contour>
      <point x="349" y="0" type="line"/>
      <point x="436" y="0" type="line"/>
      <point x="436" y="524" type="line"/>
      <point x="349" y="524" type="line"/>
    </contour>
    <contour>
      <point x="69" y="0" type="line"/>
      <point x="156" y="0" type="line"/>
      <point x="156" y="524" type="line"/>
      <point x="69" y="524" type="line"/>
    </contour>
  </outline>
</glyph>
<glyph name="hardcyr" format="2">
  <advance width="680"/>
  <unicode hex="044A"/>
  <outline>
    <contour>
      <point x="179" y="0" type="line"/>
      <point x="266" y="0" type="line"/>
      <point x="266" y="524" type="line"/>
      <point x="179" y="524" type="line"/>
    </contour>
    <contour>
      <point x="225" y="445" type="line"/>
      <point x="225" y="524" type="line"/>
      <point x="0" y="524" type="line"/>
      <point x="0" y="445" type="line"/>
    </contour>
    <contour>
      <point x="246" y="0" type="line"/>
      <point x="478" y="0" type="line" smooth="yes"/>
      <point x="567" y="0"/>
      <point x="627" y="65"/>
      <point x="627" y="161" type="curve" smooth="yes"/>
      <point x="627" y="244"/>
      <point x="594" y="322"/>
      <point x="484" y="322" type="curve" smooth="yes"/>
      <point x="246" y="322" type="line"/>
      <point x="246" y="243" type="line"/>
      <point x="473" y="243" type="line" smooth="yes"/>
      <point x="517" y="243"/>
      <point x="540" y="201"/>
      <point x="540" y="168" type="curve" smooth="yes"/>
      <point x="540" y="113"/>
      <point x="510" y="79"/>
      <point x="463" y="79" type="curve" smooth="yes"/>
      <point x="246" y="79" type="line"/>
    </contour>
  </outline>
</glyph>
<glyph name="softcyr" format="2">
  <advance width="570"/>
  <unicode hex="044C"/>
  <outline>
    <contour>
      <point x="123" y="524" type="line"/>
      <point x="210" y="524" type="line"/>
      <point x="168" y="322" type="line"/>
      <point x="386" y="322" type="line" smooth="yes"/>
      <point x="496" y="322"/>
      <point x="513" y="244"/>
      <point x="495" y="161" type="curve" smooth="yes"/>
      <point x="476" y="65"/>
      <point x="402" y="0"/>
      <point x="313" y="0" type="curve" smooth="yes"/>
      <point x="14" y="0" type="line"/>
    </contour>
    <contour>
      <point x="359" y="243" type="curve" smooth="yes"/>
      <point x="152" y="243" type="line"/>
      <point x="117" y="79" type="line"/>
      <point x="314" y="79" type="line" smooth="yes"/>
      <point x="361" y="79"/>
      <point x="399" y="113"/>
      <point x="410" y="168" type="curve" smooth="yes"/>
      <point x="417" y="201"/>
      <point x="403" y="243"/>
    </contour>
  </outline>
</glyph>
<glyph name="ereversedcyr" format="2">
  <advance width="566"/>
  <unicode hex="044D"/>
  <outline>
    <contour>
      <point x="251" y="322" type="line"/>
      <point x="436" y="322" type="line"/>
      <point x="445" y="412"/>
      <point x="404" y="457"/>
      <point x="312" y="457" type="curve" smooth="yes"/>
      <point x="269" y="457"/>
      <point x="234" y="447"/>
      <point x="207" y="427" type="curve" smooth="yes"/>
      <point x="180" y="407"/>
      <point x="162" y="379"/>
      <point x="155" y="344" type="curve" smooth="yes"/>
      <point x="153" y="339" type="line"/>
      <point x="68" y="339" type="line"/>
      <point x="70" y="344" type="line" smooth="yes"/>
      <point x="82" y="403"/>
      <point x="111" y="450"/>
      <point x="157" y="484" type="curve" smooth="yes"/>
      <point x="203" y="518"/>
      <point x="260" y="535"/>
      <point x="329" y="535" type="curve" smooth="yes"/>
      <point x="404" y="535"/>
      <point x="459" y="514"/>
      <point x="492" y="472" type="curve" smooth="yes"/>
      <point x="526" y="430"/>
      <point x="535" y="369"/>
      <point x="518" y="289" type="curve" smooth="yes"/>
      <point x="507" y="237" type="line" smooth="yes"/>
      <point x="491" y="157"/>
      <point x="457" y="96"/>
      <point x="405" y="54" type="curve" smooth="yes"/>
      <point x="355" y="12"/>
      <point x="291" y="-9"/>
      <point x="215" y="-9" type="curve" smooth="yes"/>
      <point x="146" y="-9"/>
      <point x="97" y="8"/>
      <point x="65" y="42" type="curve" smooth="yes"/>
      <point x="33" y="75"/>
      <point x="23" y="121"/>
      <point x="35" y="179" type="curve" smooth="yes"/>
      <point x="36" y="183" type="line"/>
      <point x="121" y="183" type="line"/>
      <point x="120" y="179" type="line" smooth="yes"/>
      <point x="113" y="144"/>
      <point x="118" y="117"/>
      <point x="137" y="98" type="curve" smooth="yes"/>
      <point x="156" y="78"/>
      <point x="188" y="68"/>
      <point x="231" y="68" type="curve" smooth="yes"/>
      <point x="334" y="68"/>
      <point x="397" y="125"/>
      <point x="421" y="239" type="curve" smooth="yes"/>
      <point x="422" y="243" type="line"/>
      <point x="235" y="243" type="line"/>
    </contour>
  </outline>
</glyph>
<glyph name="yacyr" format="2">
  <advance width="592"/>
  <unicode hex="044F"/>
  <guideline x="315" y="0" angle="90" name="h1"/>
  <anchor x="315" y="586" name="top"/>
  <outline>
    <contour>
      <point x="236" y="163" type="line"/>
      <point x="126" y="187"/>
      <point x="75" y="244"/>
      <point x="75" y="345" type="curve" smooth="yes"/>
      <point x="75" y="454"/>
      <point x="138" y="524"/>
      <point x="237" y="524" type="curve" smooth="yes"/>
      <point x="456" y="524" type="line"/>
      <point x="456" y="445" type="line"/>
      <point x="245" y="445" type="line" smooth="yes"/>
      <point x="198" y="445"/>
      <point x="162" y="400"/>
      <point x="162" y="341" type="curve" smooth="yes"/>
      <point x="162" y="286"/>
      <point x="208" y="242"/>
      <point x="266" y="242" type="curve" smooth="yes"/>
      <point x="456" y="242" type="line"/>
      <point x="456" y="163" type="line"/>
    </contour>
    <contour>
      <point x="523" y="0" type="line"/>
      <point x="436" y="0" type="line"/>
      <point x="436" y="524" type="line"/>
      <point x="523" y="524" type="line"/>
    </contour>
    <contour>
      <point x="69" y="0" type="line"/>
      <point x="188" y="224" type="line"/>
      <point x="264" y="214" type="line"/>
      <point x="154" y="0" type="line"/>
    </contour>
  </outline>
</glyph>
<glyph name="eukrcyr" format="2">
  <advance width="566"/>
  <unicode hex="0454"/>
  <outline>
    <contour>
      <point x="154" y="322" type="curve"/>
      <point x="339" y="322" type="line"/>
      <point x="323" y="243" type="line"/>
      <point x="136" y="243" type="line"/>
      <point x="135" y="239" type="line" smooth="yes"/>
      <point x="111" y="125"/>
      <point x="150" y="68"/>
      <point x="253" y="68" type="curve" smooth="yes"/>
      <point x="338" y="68"/>
      <point x="395" y="108"/>
      <point x="410" y="179" type="curve" smooth="yes"/>
      <point x="411" y="183" type="line"/>
      <point x="496" y="183" type="line"/>
      <point x="495" y="179" type="line" smooth="yes"/>
      <point x="471" y="62"/>
      <point x="373" y="-9"/>
      <point x="237" y="-9" type="curve" smooth="yes"/>
      <point x="83" y="-9"/>
      <point x="15" y="80"/>
      <point x="47" y="237" type="curve" smooth="yes"/>
      <point x="58" y="289" type="line" smooth="yes"/>
      <point x="91" y="446"/>
      <point x="196" y="535"/>
      <point x="349" y="535" type="curve" smooth="yes"/>
      <point x="486" y="535"/>
      <point x="554" y="463"/>
      <point x="530" y="344" type="curve" smooth="yes"/>
      <point x="528" y="339" type="line"/>
      <point x="443" y="339" type="line"/>
      <point x="445" y="344" type="line" smooth="yes"/>
      <point x="459" y="415"/>
      <point x="419" y="457"/>
      <point x="334" y="457" type="curve" smooth="yes"/>
      <point x="242" y="457"/>
      <point x="182" y="412"/>
    </contour>
  </outline>
</glyph>
<glyph name="ljecyr" format="2">
  <advance width="840"/>
  <unicode hex="0459"/>
  <outline>
    <contour>
      <point x="373" y="0" type="line"/>
      <point x="460" y="0" type="line"/>
      <point x="460" y="524" type="line"/>
      <point x="373" y="524" type="line"/>
    </contour>
    <contour>
      <point x="119" y="445" type="line"/>
      <point x="393" y="445" type="line"/>
      <point x="393" y="524" type="line"/>
      <point x="119" y="524" type="line"/>
    </contour>
    <contour>
      <point x="11" y="79" type="curve"/>
      <point x="11" y="0" type="line"/>
      <point x="96" y="0"/>
      <point x="143" y="47"/>
      <point x="150" y="140" type="curve" smooth="yes"/>
      <point x="179" y="524" type="line"/>
      <point x="92" y="524" type="line"/>
      <point x="61" y="161" type="line" smooth="yes"/>
      <point x="55" y="91"/>
      <point x="30" y="79"/>
    </contour>
    <contour>
      <point x="406" y="0" type="line"/>
      <point x="638" y="0" type="line" smooth="yes"/>
      <point x="727" y="0"/>
      <point x="787" y="65"/>
      <point x="787" y="161" type="curve" smooth="yes"/>
      <point x="787" y="244"/>
      <point x="754" y="322"/>
      <point x="644" y="322" type="curve" smooth="yes"/>
      <point x="406" y="322" type="line"/>
      <point x="406" y="243" type="line"/>
      <point x="633" y="243" type="line" smooth="yes"/>
      <point x="677" y="243"/>
      <point x="700" y="201"/>
      <point x="700" y="168" type="curve" smooth="yes"/>
      <point x="700" y="113"/>
      <point x="670" y="79"/>
      <point x="623" y="79" type="curve" smooth="yes"/>
      <point x="406" y="79" type="line"/>
    </contour>
  </outline>
</glyph>
<glyph name="dzhecyr" format="2">
  <advance width="586"/>
  <unicode hex="045F"/>
  <outline>
    <contour>
      <point x="123" y="524" type="line"/>
      <point x="210" y="524" type="line"/>
      <point x="117" y="79" type="line"/>
      <point x="391" y="79" type="line"/>
      <point x="484" y="524" type="line"/>
      <point x="571" y="524" type="line"/>
      <point x="462" y="0" type="line"/>
      <point x="282" y="0" type="line"/>
      <point x="247" y="-170" type="line"/>
      <point x="160" y="-170" type="line"/>
      <point x="195" y="0" type="line"/>
      <point x="14" y="0" type="line"/>
    </contour>
  </outline>
</glyph>
<glyph name="Gheupturncyrillic" format="2">
  <advance width="604"/>
  <unicode hex="0490"/>
  <outline>
    <component base="Gecyr"/>
    <contour>
      <point x="569" y="707" type="line"/>
      <point x="602" y="867" type="line"/>
      <point x="692" y="867" type="line"/>
      <point x="659" y="707" type="line"/>
    </contour>
  </outline>
</glyph>
<glyph name="guilsinglright" format="2">
  <advance width="330"/>
  <unicode hex="203A"/>
  <outline>
    <contour>
      <point x="48" y="155" type="line"/>
      <point x="204" y="271" type="line"/>
      <point x="97" y="388" type="line"/>
      <point x="117" y="482" type="line"/>
      <point x="309" y="270" type="line"/>
      <point x="28" y="58" type="line"/>
    </contour>
  </outline>
</glyph>
<glyph name="Euro" format="2">
  <advance width="626"/>
  <unicode hex="20AC"/>
  <outline>
    <contour>
      <point x="99" y="158" type="curve" smooth="yes"/>
      <point x="99" y="178"/>
      <point x="101" y="200"/>
      <point x="106" y="225" type="curve" smooth="yes"/>
      <point x="113" y="257" type="line"/>
      <point x="46" y="257" type="line"/>
      <point x="59" y="323" type="line"/>
      <point x="127" y="323" type="line"/>
      <point x="141" y="389" type="line"/>
      <point x="74" y="389" type="line"/>
      <point x="88" y="455" type="line"/>
      <point x="155" y="455" type="line"/>
      <point x="163" y="493" type="line" smooth="yes"/>
      <point x="179" y="562"/>
      <point x="210" y="617"/>
      <point x="255" y="657" type="curve" smooth="yes"/>
      <point x="300" y="697"/>
      <point x="358" y="717"/>
      <point x="429" y="717" type="curve" smooth="yes"/>
      <point x="491" y="717"/>
      <point x="539" y="702"/>
      <point x="573" y="673" type="curve" smooth="yes"/>
      <point x="606" y="644"/>
      <point x="623" y="601"/>
      <point x="623" y="544" type="curve"/>
      <point x="540" y="544" type="line"/>
      <point x="540" y="606"/>
      <point x="500" y="637"/>
      <point x="421" y="637" type="curve" smooth="yes"/>
      <point x="372" y="637"/>
      <point x="334" y="625"/>
      <point x="308" y="600" type="curve" smooth="yes"/>
      <point x="281" y="575"/>
      <point x="263" y="539"/>
      <point x="253" y="492" type="curve" smooth="yes"/>
      <point x="245" y="455" type="line"/>
      <point x="490" y="455" type="line"/>
      <point x="463" y="389" type="line"/>
      <point x="230" y="389" type="line"/>
      <point x="217" y="323" type="line"/>
      <point x="435" y="323" type="line"/>
      <point x="409" y="257" type="line"/>
      <point x="202" y="257" type="line"/>
      <point x="195" y="223" type="line" smooth="yes"/>
      <point x="192" y="207"/>
      <point x="190" y="190"/>
      <point x="189" y="173" type="curve" smooth="yes"/>
      <point x="189" y="140"/>
      <point x="199" y="115"/>
      <point x="220" y="97" type="curve" smooth="yes"/>
      <point x="240" y="79"/>
      <point x="270" y="70"/>
      <point x="311" y="70" type="curve" smooth="yes"/>
      <point x="389" y="70"/>
      <point x="438" y="101"/>
      <point x="459" y="163" type="curve"/>
      <point x="544" y="163" type="line"/>
      <point x="531" y="108"/>
      <point x="503" y="65"/>
      <point x="460" y="35" type="curve" smooth="yes"/>
      <point x="417" y="5"/>
      <point x="365" y="-10"/>
      <point x="302" y="-10" type="curve" smooth="yes"/>
      <point x="239" y="-10"/>
      <point x="189" y="5"/>
      <point x="153" y="35" type="curve" smooth="yes"/>
      <point x="117" y="65"/>
      <point x="99" y="106"/>
    </contour>
  </outline>
</glyph>
<glyph name="minus" format="2">
  <advance width="521"/>
  <unicode hex="2212"/>
  <outline>
    <contour>
      <point x="80" y="396" type="line"/>
      <point x="495" y="396" type="line"/>
      <point x="478" y="313" type="line"/>
      <point x="63" y="313" type="line"/>
    </contour>
  </outline>
</glyph>
<glyph name="doubleobliquehyphen" format="2">
  <advance width="521"/>
  <unicode hex="2E17"/>
  <outline>
    <contour>
      <point x="67" y="337" type="line"/>
      <point x="484" y="478" type="line"/>
      <point x="496" y="400" type="line"/>
      <point x="79" y="259" type="line"/>
    </contour>
    <contour>
      <point x="32" y="165" type="line"/>
      <point x="448" y="306" type="line"/>
      <point x="460" y="229" type="line"/>
      <point x="44" y="88" type="line"/>
    </contour>
  </outline>
</glyph>
<glyph name="acutecomb.loclPLK" format="2">
  <outline>
    <contour>
      <point x="82" y="721" type="line"/>
      <point x="193" y="721" type="line"/>
      <point x="113" y="591" type="line"/>
      <point x="30" y="591" type="line"/>
    </contour>
  </outline>
</glyph>
<glyph name="hardcyr.loclBGR" format="2">
  <advance width="680"/>
  <outline>
    <contour>
      <point x="434" y="332" type="curve" smooth="yes"/>
      <point x="381" y="332"/>
      <point x="342" y="329"/>
      <point x="274" y="302" type="curve"/>
      <point x="253" y="203" type="line"/>
      <point x="234" y="109"/>
      <point x="278" y="68"/>
      <point x="354" y="68" type="curve" smooth="yes"/>
      <point x="442" y="68"/>
      <point x="509" y="117"/>
      <point x="525" y="194" type="curve" smooth="yes"/>
      <point x="542" y="276"/>
      <point x="505" y="332"/>
    </contour>
    <contour>
      <point x="54" y="524" type="line"/>
      <point x="320" y="524" type="line"/>
      <point x="290" y="381" type="line"/>
      <point x="362" y="408"/>
      <point x="404" y="411"/>
      <point x="461" y="411" type="curve" smooth="yes"/>
      <point x="579" y="411"/>
      <point x="640" y="328"/>
      <point x="614" y="201" type="curve" smooth="yes"/>
      <point x="587" y="74"/>
      <point x="477" y="-9"/>
      <point x="336" y="-9" type="curve" smooth="yes"/>
      <point x="203" y="-9"/>
      <point x="140" y="75"/>
      <point x="166" y="203" type="curve"/>
      <point x="217" y="445" type="line"/>
      <point x="38" y="445" type="line"/>
    </contour>
  </outline>
</glyph>
<glyph name="icyr.loclBGR" format="2">
  <advance width="586"/>
  <guideline x="293" y="0" angle="90" name="h1"/>
  <anchor x="293" y="586" name="top"/>
  <outline>
    <contour>
      <point x="430" y="243" type="line"/>
      <point x="430" y="217" type="line" smooth="yes"/>
      <point x="430" y="117"/>
      <point x="386" y="71"/>
      <point x="293" y="71" type="curve" smooth="yes"/>
      <point x="202" y="71"/>
      <point x="156" y="120"/>
      <point x="156" y="217" type="curve" smooth="yes"/>
      <point x="156" y="524" type="line"/>
      <point x="69" y="524" type="line"/>
      <point x="69" y="208" type="line" smooth="yes"/>
      <point x="69" y="69"/>
      <point x="137" y="-7"/>
      <point x="262" y="-7" type="curve" smooth="yes"/>
      <point x="387" y="-7"/>
      <point x="457" y="70"/>
      <point x="457" y="208" type="curve" smooth="yes"/>
      <point x="457" y="243" type="line"/>
    </contour>
    <contour>
      <point x="434" y="0" type="line"/>
      <point x="517" y="0" type="line"/>
      <point x="517" y="524" type="line"/>
      <point x="430" y="524" type="line"/>
      <point x="430" y="84" type="line"/>
      <point x="434" y="84" type="line"/>
    </contour>
  </outline>
</glyph>
<glyph name="one.osf" format="2">
  <advance width="370"/>
  <outline>
    <contour>
      <point x="232" y="431" type="line"/>
      <point x="61" y="337" type="line"/>
      <point x="82" y="436" type="line"/>
      <point x="253" y="533" type="line"/>
      <point x="346" y="533" type="line"/>
      <point x="235" y="0" type="line"/>
      <point x="142" y="0" type="line"/>
    </contour>
  </outline>
</glyph>
<glyph name="shacyr.loclBGR" format="2">
  <advance width="931"/>
  <outline>
    <contour>
      <point x="122" y="524" type="line"/>
      <point x="209" y="524" type="line"/>
      <point x="143" y="206" type="line" smooth="yes"/>
      <point x="124" y="117"/>
      <point x="159" y="71"/>
      <point x="243" y="71" type="curve" smooth="yes"/>
      <point x="332" y="71"/>
      <point x="391" y="120"/>
      <point x="409" y="208" type="curve" smooth="yes"/>
      <point x="475" y="524" type="line"/>
      <point x="563" y="524" type="line"/>
      <point x="497" y="205" type="line" smooth="yes"/>
      <point x="479" y="119"/>
      <point x="513" y="71"/>
      <point x="592" y="71" type="curve" smooth="yes"/>
      <point x="681" y="71"/>
      <point x="747" y="127"/>
      <point x="766" y="217" type="curve" smooth="yes"/>
      <point x="830" y="524" type="line"/>
      <point x="917" y="524" type="line"/>
      <point x="808" y="0" type="line"/>
      <point x="722" y="0" type="line"/>
      <point x="737" y="70" type="line"/>
      <point x="689" y="20"/>
      <point x="627" y="-6"/>
      <point x="555" y="-6" type="curve" smooth="yes"/>
      <point x="485" y="-6"/>
      <point x="432" y="24"/>
      <point x="411" y="78" type="curve"/>
      <point x="355" y="20"/>
      <point x="292" y="-6"/>
      <point x="210" y="-6" type="curve" smooth="yes"/>
      <point x="84" y="-6"/>
      <point x="27" y="67"/>
      <point x="53" y="194" type="curve" smooth="yes"/>
    </contour>
  </outline>
</glyph>
<glyph name="six.dnom" format="2">
  <advance width="359"/>
  <outline>
    <contour>
      <point x="150" y="-17" type="curve" smooth="yes"/>
      <point x="117" y="-17"/>
      <point x="13" y="-9"/>
      <point x="13" y="93" type="curve" smooth="yes"/>
      <point x="13" y="127"/>
      <point x="23" y="182"/>
      <point x="78" y="243" type="curve"/>
      <point x="239" y="431" type="line"/>
      <point x="336" y="431" type="line"/>
      <point x="192" y="262" type="line"/>
      <point x="199" y="263"/>
      <point x="207" y="263"/>
      <point x="214" y="263" type="curve" smooth="yes"/>
      <point x="233" y="263"/>
      <point x="333" y="258"/>
      <point x="333" y="156" type="curve" smooth="yes"/>
      <point x="333" y="153"/>
      <point x="332" y="-17"/>
    </contour>
    <contour>
      <point x="158" y="53" type="curve" smooth="yes"/>
      <point x="248" y="53"/>
      <point x="249" y="145"/>
      <point x="249" y="146" type="curve" smooth="yes"/>
      <point x="249" y="160"/>
      <point x="244" y="192"/>
      <point x="188" y="192" type="curve" smooth="yes"/>
      <point x="107" y="192"/>
      <point x="97" y="119"/>
      <point x="97" y="100" type="curve" smooth="yes"/>
      <point x="97" y="84"/>
      <point x="104" y="53"/>
    </contour>
  </outline>
</glyph>
<glyph name="yucyr.loclBGR" format="2">
  <advance width="765"/>
  <guideline x="119" y="0" angle="90" name="h1"/>
  <guideline x="459" y="0" angle="90" name="h1"/>
  <anchor x="459" y="586" name="top"/>
  <outline>
    <component base="o" xOffset="180"/>
    <contour>
      <point x="161" y="707" type="line"/>
      <point x="248" y="707" type="line"/>
      <point x="168" y="322" type="line"/>
      <point x="292" y="322" type="line"/>
      <point x="276" y="243" type="line"/>
      <point x="152" y="243" type="line"/>
      <point x="101" y="0" type="line"/>
      <point x="14" y="0" type="line"/>
    </contour>
  </outline>
</glyph>
<glyph name="zero.dnom" format="2">
  <advance width="357"/>
  <outline>
    <contour>
      <point x="364" y="324" type="curve" smooth="yes"/>
      <point x="364" y="297"/>
      <point x="361" y="284"/>
      <point x="326" y="133" type="curve" smooth="yes"/>
      <point x="300" y="20"/>
      <point x="235" y="-17"/>
      <point x="155" y="-17" type="curve" smooth="yes"/>
      <point x="80" y="-17"/>
      <point x="20" y="17"/>
      <point x="20" y="97" type="curve" smooth="yes"/>
      <point x="20" y="125"/>
      <point x="23" y="137"/>
      <point x="58" y="288" type="curve" smooth="yes"/>
      <point x="87" y="413"/>
      <point x="163" y="437"/>
      <point x="228" y="437" type="curve" smooth="yes"/>
      <point x="262" y="437"/>
      <point x="364" y="429"/>
    </contour>
    <contour>
      <point x="138" y="271" type="curve" smooth="yes"/>
      <point x="104" y="125"/>
      <point x="105" y="125"/>
      <point x="104" y="104" type="curve" smooth="yes"/>
      <point x="104" y="73"/>
      <point x="117" y="55"/>
      <point x="159" y="55" type="curve" smooth="yes"/>
      <point x="197" y="55"/>
      <point x="227" y="69"/>
      <point x="245" y="148" type="curve" smooth="yes"/>
      <point x="271" y="265" type="line" smooth="yes"/>
      <point x="276" y="285"/>
      <point x="279" y="302"/>
      <point x="279" y="316" type="curve" smooth="yes"/>
      <point x="279" y="345"/>
      <point x="267" y="365"/>
      <point x="224" y="365" type="curve" smooth="yes"/>
      <point x="186" y="365"/>
      <point x="156" y="352"/>
    </contour>
  </outline>
</glyph>
<glyph name="zhecyr.loclBGR" format="2">
  <advance width="909"/>
  <outline>
    <contour>
      <point x="503" y="707" type="line"/>
      <point x="590" y="707" type="line"/>
      <point x="510" y="322" type="line"/>
      <point x="592" y="322" type="line"/>
      <point x="833" y="524" type="line"/>
      <point x="942" y="524" type="line"/>
      <point x="685" y="312" type="line"/>
      <point x="841" y="0" type="line"/>
      <point x="738" y="0" type="line"/>
      <point x="617" y="243" type="line"/>
      <point x="494" y="243" type="line"/>
      <point x="443" y="0" type="line"/>
      <point x="356" y="0" type="line"/>
      <point x="407" y="243" type="line"/>
      <point x="283" y="243" type="line"/>
      <point x="61" y="0" type="line"/>
      <point x="-42" y="0" type="line"/>
      <point x="243" y="312" type="line"/>
      <point x="75" y="524" type="line"/>
      <point x="184" y="524" type="line"/>
      <point x="341" y="322" type="line"/>
      <point x="423" y="322" type="line"/>
    </contour>
  </outline>
</glyph>
